<svg width="127" height="42" viewBox="0 0 127 42" fill="none" xmlns="http://www.w3.org/2000/svg">
<path d="M61.1271 30.5427C60.6559 30.8766 59.6905 31.1626 58.6418 31.1626C56.7166 31.1626 55.8506 29.6793 55.8865 27.9538C55.9168 26.5237 56.8048 24.9032 59.2092 24.9032L61.1275 24.9022V30.5427H61.1271ZM59.1478 14.6825C56.8634 14.6825 54.8074 15.3307 52.6946 16.3835L52.1554 16.6624L53.4416 19.5429L54.1667 19.1989C55.6629 18.5269 57.2568 18.0765 58.6899 18.1367C60.4247 18.2091 61.1344 19.0071 61.1344 20.6727V21.65H58.2979C53.7384 21.65 50.9012 24.0754 50.8192 27.8414C50.8192 31.4202 53.7925 34.5009 57.9261 34.5009C61.2617 34.5009 64.0878 33.4148 65.9921 31.5007V21.2887C65.9921 16.316 62.4545 14.6825 59.1478 14.6825ZM126.866 31.15V34.1701C126.866 34.1701 125.856 34.3637 125.037 34.3637C121.216 34.3637 118.934 32.557 118.934 28.3377V10.5434L123.733 9.723V28.6496C123.733 30.1119 124.152 30.9869 126.145 31.1426C126.417 31.1626 126.867 31.1497 126.867 31.1497L126.866 31.15ZM105.817 22.1651C105.898 20.3119 106.667 18.4068 108.557 18.4068C110.684 18.4068 110.998 20.7228 110.998 22.1651H105.817ZM109.592 31.1279C108.28 31.1279 107.394 30.696 106.813 30.0674C105.952 29.134 105.57 27.2146 105.674 25.1741H115.996V24.6981C115.903 17.9179 113.6 14.8291 108.557 14.8291C102.929 14.8291 100.737 20.0249 100.696 24.9067C100.661 27.9951 101.822 31.1045 103.944 32.8759C105.237 33.9531 107.029 34.5502 109.106 34.5502C110.238 34.5502 111.421 34.3812 112.5 34.0462C114.57 33.4022 116.098 32.29 116.098 32.29L114.749 29.5022C114.506 29.6863 112.438 31.1279 109.592 31.1279ZM99.0129 31.1675V34.1442C99.0129 34.1442 98.1277 34.3206 97.1881 34.3206C93.2791 34.3206 90.9466 32.4264 90.9466 28.4218V10.5402L95.8538 9.74925V15.0325H99.0115V18.5637H95.8538V28.6251C95.8538 29.9425 96.259 31.0807 98.3171 31.1532C98.5954 31.163 98.961 31.1626 99.0129 31.1675ZM69.5764 15.806L74.364 15.022V34.1544H69.5764V15.806ZM72.0192 7.37695C72.8521 7.37695 73.6225 7.70245 74.1885 8.29255C74.4641 8.57805 74.6796 8.91629 74.8221 9.28711C74.9646 9.65794 75.0314 10.0538 75.0183 10.451C75.0183 12.1527 73.6825 13.4911 71.9766 13.4911C70.2739 13.4911 68.9361 12.1488 68.9361 10.431C68.9361 8.74825 70.3196 7.37695 72.0192 7.37695ZM89.6565 15.3125L88.3057 18.3519C88.3057 18.3519 87.5342 18.1041 86.3463 18.1524C85.0614 18.2038 83.7099 18.7495 83.0738 19.3721V34.168H78.1889L78.1924 18.4506C81.1008 15.3482 84.328 14.7301 86.4304 14.7301C87.8819 14.7301 89.1316 15.0528 89.6565 15.3125ZM28.574 0V0.0532H28.1502V0.1064H27.6731V0.1596H27.2494V0.2128H26.8783V0.26565H26.6132V0.31885H26.3485V0.37205H26.0834V0.42525H25.8187V0.47845H25.5537V0.53165H25.2889V0.58485H25.1303V0.63805H24.9182V0.69125H24.7061V0.74445H24.4944V0.7973H24.3354V0.8505H24.1237V0.9037H23.9117V0.9569H23.6996V1.0101H23.5409V1.0633H23.3819V1.1165H23.2228V1.1697H23.0641V1.2229H22.9051V1.2761H22.7461V1.32895H22.587V1.38215H22.4283V1.43535H22.2693V1.48855H22.1103V1.54175H21.9516V1.59495H21.7929V1.64815H21.6338V1.70135H21.4751V1.75455H21.3691V1.80775H21.2101V1.8606H21.1041V1.9138H20.9454V1.967H20.8393V2.0202H20.6803V2.0734H20.5213V2.1266H20.4156V2.1798H20.2565V2.233H20.1505V2.2862H19.9915V2.3394H19.8858V2.39225H19.7268V2.44545H19.6207V2.49865H19.5147V2.55185H19.409V2.60505H19.25V2.65825H19.144V2.71145H19.0379V2.76465H18.9319V2.81785H18.8262V2.87105H18.6672V2.9239H18.5612V2.9771H18.4552V3.0303H18.3495V3.0835H18.2435V3.1367H18.0844V3.1899H17.9784V3.2431H17.8724V3.2963H17.7667V3.3495H17.6607V3.4027H17.5546V3.45555H17.4486V3.50875H17.3429V3.56195H17.2369V3.61515H17.1309V3.66835H17.0248V3.72155H16.9188V3.77475H16.8131V3.82795H16.7071V3.88115H16.6011V3.93435H16.4951V3.9872H16.389V4.0404H16.336V4.0936H16.2303V4.1468H16.1243V4.2H16.0183V4.2532H15.9123V4.3064H15.8062V4.3596H15.7006V4.4128H15.6476V4.46565H15.5415V4.51885H15.4355V4.57205H15.3295V4.62525H15.2765V4.67845H15.1708V4.73165H15.0648V4.78485H14.9587V4.83805H14.9057V4.89125H14.7997V4.94445H14.694V4.9973H14.588V5.0505H14.482V5.1037H14.429V5.1569H14.3229V5.2101H14.2169V5.2633H14.1112V5.3165H14.0582V5.3697H13.9522V5.4229H13.8992V5.4761H13.7931V5.52895H13.7401V5.58215H13.6345V5.63535H13.5284V5.68855H13.4754V5.74175H13.3694V5.79495H13.3164V5.84815H13.2104V5.90135H13.1047V5.95455H13.0517V6.00775H12.9456V6.0606H12.8926V6.1138H12.7866V6.167H12.7336V6.2202H12.6279V6.2734H12.5219V6.3266H12.4689V6.3798H12.3628V6.433H12.3098V6.4862H12.2038V6.5394H12.1508V6.59225H12.0451V6.64545H11.9921V6.69865H11.9391V6.75185H11.8331V6.80505H11.7801V6.85825H11.674V6.91145H11.621V6.96465H11.5153V7.01785H11.4623V7.07105H11.4093V7.1239H11.3033V7.1771H11.2503V7.2303H11.1442V7.2835H11.0912V7.3367H10.9856V7.3899H10.9325V7.4431H10.8795V7.4963H10.7735V7.5495H10.7205V7.6027H10.6145V7.65555H10.5614V7.70875H10.5088V7.76195H10.4028V7.81515H10.3497V7.86835H10.2967V7.92155H10.1907V7.97475H10.1377V8.02795H10.0847V8.08115H10.0317V8.13435H9.92599V8.1872H9.87298V8.2404H9.81996V8.2936H9.71394V8.3468H9.66093V8.4H9.60791V8.4532H9.5549V8.5064H9.44922V8.5596H9.39621V8.6128H9.3432V8.66565H9.23717V8.71885H9.18416V8.77205H9.13114V8.82525H9.02512V8.87845H8.97245V8.93165H8.91944V8.98485H8.86643V9.03805H8.81342V9.09125H8.7604V9.14445H8.65438V9.1973H8.60136V9.2505H8.54835V9.3037H8.49534V9.3569H8.44267V9.4101H8.38966V9.4633H8.28363V9.5165H8.23062V9.5697H8.17761V9.6229H8.1246V9.6761H8.07158V9.72895H8.01857V9.78215H7.91289V9.83535H7.85988V9.88855H7.80687V9.94175H7.75385V9.99495H7.70084V10.0482H7.64783V10.1013H7.5418V10.1545H7.48879V10.2078H7.43577V10.2606H7.38311V10.3138H7.3301V10.367H7.27708V10.4202H7.22407V10.4734H7.17106V10.5266H7.11805V10.5798H7.06503V10.633H7.01202V10.6862H6.95901V10.7394H6.90599V10.7922H6.85333V10.8454H6.80032V10.8987H6.7473V10.9518H6.69429V11.005H6.64128V11.0582H6.58827V11.1115H6.53525V11.1646H6.48224V11.2178H6.37621V11.271H6.32355V11.3239H6.27054V11.3771H6.21752V11.4303H6.16451V11.4835H6.1115V11.5367H6.05848V11.5899H6.00547V11.6431H5.95246V11.6963H5.89945V11.7495H5.84643V11.8555H5.79377V11.9088H5.74076V11.9619H5.68774V12.0151H5.63473V12.0683H5.58172V12.1215H5.5287V12.1747H5.47569V12.228H5.42268V12.2811H5.36966V12.3344H5.31665V12.4404H5.26399V12.4936H5.21097V12.5468H5.15796V12.6H5.10495V12.6532H5.05193V12.7064H4.99892V12.7596H4.94591V12.8128H4.8929V12.8656H4.83988V12.972H4.78722V13.0252H4.73421V13.0785H4.68119V13.1316H4.62818V13.1849H4.57517V13.2381H4.52215V13.3444H4.46914V13.3973H4.41613V13.4505H4.36311V13.5569H4.3101V13.6101H4.25744V13.6633H4.20442V13.7165H4.15141V13.8229H4.0984V13.8761H4.04539V13.929H3.99237V14.0354H3.93936V14.0885H3.88635V14.1417H3.83333V14.1949H3.78032V14.3013H3.72766V14.3546H3.67429V14.4078H3.62128V14.5138H3.56827V14.567H3.51526V14.6202H3.46224V14.7266H3.40923V14.7798H3.35691V14.8862H3.3039V14.9394H3.25089V14.9922H3.19822V15.0986H3.14521V15.1518H3.09185V15.2583H3.03884V15.3115H2.98582V15.4178H2.93281V15.5239H2.8798V15.5771H2.82678V15.6835H2.77377V15.7367H2.72076V15.8431H2.66809V15.9495H2.61508V16.0027H2.56172V16.1087H2.50871V16.1619H2.45569V16.2683H2.40268V16.3748H2.34967V16.4811H2.29665V16.5872H2.24434V16.6404H2.19133V16.7468H2.13866V16.8532H2.08565V16.9596H2.03264V17.0656H1.97927V17.1721H1.92626V17.2785H1.87325V17.3848H1.82024V17.4912H1.76722V17.5973H1.71421V17.7569H1.6612V17.8633H1.60853V17.9697H1.55552V18.129H1.50251V18.2353H1.44914V18.3949H1.39613V18.5546H1.34312V18.6606H1.29011V18.8734H1.23709V19.033H1.18443V19.1922H1.13176V19.4051H1.07875V19.671H1.02574V19.8835H0.972725V20.2556H0.919712V20.8936H0.866699V21.4785H0.919712V22.0105H0.972725V22.2761H1.02574V22.4885H1.07875V22.7013H1.13142V22.8606H1.18443V23.0202H1.23744V23.1798H1.29045V23.2862H1.34347V23.3923H1.39648V23.4986H1.44949V23.605H1.50251V23.7115H1.55552V23.8179H1.60853V23.9239H1.6612V23.9771H1.71421V24.0835H1.76722V24.1367H1.82024V24.2431H1.87325V24.2963H1.92626V24.4027H1.97927V24.4555H2.03229V24.5088H2.0853V24.562H2.13831V24.6152H2.19098V24.6684H2.24399V24.7215H2.297V24.7748H2.35002V24.8279H2.40303V24.8811H2.45604V24.9343H2.50906V24.9872H2.56207V25.0404H2.61508V25.0936H2.66809V25.1468H2.72076V25.2H2.77377V25.2532H2.82678V25.3064H2.8798V25.3596H2.93281V25.4128H3.03884V25.4657H3.09185V25.5189H3.19788V25.5721H3.25054V25.6252H3.35657V25.6784H3.40958V25.7316H3.5156V25.7848H3.56862V25.838H3.67464V25.8912H3.72766V25.9444H3.83333V25.9973H3.88635V26.0505H3.99237V26.1037H4.0984V26.1569H4.25744V26.2101H4.36311V26.2633H4.46914V26.3165H4.62818V26.3697H4.73421V26.4229H4.83988V26.4761H5.05193V26.5289H5.317V26.5821H5.58172V26.6353H5.84678V26.6885H7.17106V26.6353H7.5418V26.5821H7.85988V26.5289H8.07158V26.4761H8.28363V26.4229H8.44267V26.3697H8.60136V26.3165H8.81342V26.2633H8.97245V26.2101H9.07813V26.1569H9.23717V26.1037H9.3432V26.0505H9.44922V25.9973H9.60791V25.9444H9.71394V25.8912H9.81996V25.838H9.92599V25.7848H10.0317V25.7316H10.1377V25.6784H10.2437V25.6252H10.3497V25.5721H10.4558V25.5189H10.5614V25.4657H10.6675V25.4128H10.7735V25.3596H10.8795V25.3064H10.9325V25.2532H11.0386V25.2H11.0912V25.1468H11.1973V25.0936H11.3033V25.0404H11.3563V24.9872H11.4623V24.9343H11.5683V24.8811H11.621V24.8279H11.727V24.7748H11.7801V24.7215H11.8861V24.6684H11.9391V24.6152H12.0451V24.562H12.0981V24.5088H12.2038V24.4555H12.2568V24.4027H12.3628V24.3495H12.4159V24.2963H12.5219V24.2431H12.5749V24.1899H12.6806V24.1367H12.7336V24.0835H12.7866V24.0303H12.8926V23.9771H12.9456V23.9239H12.9987V23.871H13.1047V23.8179H13.1577V23.7647H13.2634V23.7115H13.3164V23.6583H13.3694V23.605H13.4754V23.5518H13.5284V23.4986H13.5814V23.4454H13.6871V23.3923H13.7401V23.3394H13.7931V23.2862H13.8992V23.233H13.9522V23.1798H14.0052V23.1266H14.1112V23.0734H14.1642V23.0202H14.2169V22.967H14.3229V22.9138H14.3759V22.8606H14.429V22.8078H14.482V22.7545H14.588V22.7013H14.641V22.6481H14.694V22.5949H14.7997V22.5417H14.8527V22.4885H14.9057V22.4353H15.0117V22.3822H15.0648V22.329H15.1178V22.2761H15.1708V22.2229H15.2765V22.1697H15.3295V22.1165H15.3825V22.0633H15.4885V22.0101H15.5415V21.9569H15.5945V21.9037H15.7006V21.8505H15.7536V21.7973H15.8062V21.7444H15.9123V21.6912H15.9653V21.6381H16.0183V21.5849H16.1243V21.5317H16.1773V21.4785H16.2303V21.4252H16.336V21.372H16.389V21.3188H16.4951V21.2656H16.5481V21.2128H16.6011V21.1596H16.7071V21.1064H16.7601V21.0532H16.8658V21H16.9188V20.9468H17.0248V20.8936H17.0779V20.8404H17.1839V20.7872H17.2369V20.7344H17.3429V20.6812H17.3956V20.628H17.4486V20.5747H17.5546V20.5215H17.6076V20.4683H17.7137V20.4151H17.7667V20.3619H17.8724V20.3088H17.9254V20.2556H18.0314V20.2027H18.0844V20.1495H18.1904V20.0963H18.2435V20.0431H18.3495V19.9899H18.4021V19.9367H18.5082V19.8835H18.5612V19.8303H18.6672V19.7771H18.7202V19.7239H18.8262V19.671H18.8793V19.6178H18.9319V19.5646H19.0379V19.5114H19.091V19.4583H19.197V19.4051H19.25V19.3519H19.356V19.2986H19.409V19.2454H19.5147V19.1922H19.5677V19.1394H19.6738V19.0862H19.7268V19.033H19.8328V18.9798H19.8858V18.9266H19.9915V18.8734H20.0445V18.8202H20.1505V18.767H20.2035V18.7138H20.3096V18.6606H20.3626V18.6077H20.4686V18.5546H20.5213V18.5014H20.6273V18.4481H20.6803V18.3949H20.7863V18.3417H20.8393V18.2885H20.9454V18.2353H20.9984V18.1821H21.1041V18.129H21.1571V18.0761H21.2631V18.0229H21.3161V17.9697H21.4221V17.9165H21.4751V17.8633H21.5808V17.8101H21.6338V17.7569H21.7399V17.7037H21.7929V17.6505H21.8989V17.5973H22.0049V17.5444H22.0576V17.4912H22.1636V17.4381H22.2166V17.3848H22.3227V17.3316H22.3757V17.2785H22.4817V17.2253H22.5347V17.1721H22.6404V17.1188H22.6934V17.0656H22.7994V17.0128H22.9055V16.9596H22.9585V16.9064H23.0645V16.8532H23.1172V16.8H23.2232V16.7468H23.3292V16.6936H23.3822V16.6404H23.4882V16.5872H23.5413V16.5343H23.6469V16.4811H23.7V16.4279H23.806V16.3748H23.912V16.3216H23.965V16.2683H24.071V16.2151H24.1767V16.1619H24.2297V16.1087H24.3358V16.0555H24.4418V16.0027H24.4948V15.9495H24.6008V15.8963H24.7065V15.8431H24.7595V15.7899H24.8655V15.7367H24.9716V15.6835H25.0246V15.6303H25.1306V15.5771H25.2363V15.5239H25.2893V15.471H25.3953V15.4178H25.5013V15.3646H25.6074V15.3115H25.6604V15.2583H25.7661V15.2051H25.8721V15.1518H25.9781V15.0986H26.0311V15.0454H26.1372V14.9922H26.2428V14.9394H26.3489V14.8862H26.4549V14.833H26.5079V14.7798H26.6139V14.7266H26.7199V14.6734H26.8256V14.6202H26.9317V14.567H27.0377V14.5138H27.1437V14.4606H27.2497V14.4078H27.3554V14.3546H27.4614V14.3013H27.5675V14.2481H27.6735V14.1949H27.7795V14.1417H27.8322V14.0885H27.9912V14.0354H28.0972V13.9822H28.2033V13.929H28.3093V13.8761H28.415V13.8229H28.574V13.7697H28.68V13.7165H28.7861V13.6633H28.8917V13.6101H28.9978V13.5569H29.1568V13.5037H29.2628V13.4505H29.4215V13.3973H29.5275V13.3444H29.6866V13.2912H29.8456V13.2381H29.9513V13.1849H30.1103V13.1316H30.2164V13.0785H30.3754V13.0252H30.5871V12.972H30.7461V12.9188H30.9578V12.8656H31.1169V12.8128H31.3289V12.7596H31.5406V12.7064H31.8057V12.6532H32.1234V12.6H32.3885V12.5468H33.289V12.4936H33.395V12.5468H33.8718V12.6H34.2956V12.6532H34.4546V12.7064H34.6133V12.7596H34.7723V12.8128H34.8784V12.8656H35.0374V12.9188H35.1431V12.972H35.2491V13.0252H35.3021V13.0785H35.4081V13.1316H35.5142V13.1849H35.5672V13.2381H35.6729V13.2912H35.7259V13.3444H35.8319V13.3973H35.8849V13.4505H35.9379V13.5037H35.9909V13.5569H36.044V13.6101H36.097V13.6633H36.15V13.7165H36.2026V13.7697H36.2557V13.8229H36.3087V13.8761H36.3617V13.929H36.4147V14.0354H36.4677V14.0885H36.5207V14.1417H36.5737V14.2481H36.6267V14.3013H36.6798V14.4078H36.7324V14.4606H36.7854V14.567H36.8385V14.6734H36.8915V14.7266H36.9445V14.833H36.9975V14.9394H37.0505V15.0454H37.1035V15.1518H37.1565V15.3115H37.2095V15.4178H37.2622V15.5771H37.3152V15.6835H37.3682V15.8431H37.4212V16.0027H37.4743V16.2151H37.5273V16.3748H37.5803V16.5872H37.6333V16.9064H37.6863V17.1724H37.7393V17.7569H37.792V19.0862H37.7393V19.5114H37.6863V19.9899H37.6333V20.2559H37.5803V20.5215H37.5273V20.7344H37.4743V21H37.4212V21.2128H37.3682V21.4252H37.3152V21.5849H37.2622V21.7444H37.2095V21.9037H37.1565V22.1165H37.1035V22.2761H37.0505V22.4353H36.9975V22.5949H36.9445V22.7013H36.8915V22.8606H36.8385V22.967H36.7854V23.1266H36.7324V23.233H36.6798V23.3923H36.6267V23.4986H36.5737V23.6583H36.5207V23.7647H36.4677V23.871H36.4147V23.9771H36.3617V24.0835H36.3087V24.2431H36.2557V24.3495H36.2026V24.4555H36.15V24.562H36.097V24.6684H36.044V24.7215H35.9909V24.8279H35.9379V24.9343H35.8849V25.0404H35.8319V25.1468H35.7789V25.2H35.7259V25.3064H35.6729V25.4128H35.6202V25.4657H35.5672V25.5721H35.5142V25.6784H35.4612V25.7316H35.4081V25.838H35.3551V25.9444H35.3021V25.9973H35.2491V26.1037H35.1961V26.1569H35.1431V26.2633H35.0904V26.3165H35.0374V26.4229H34.9844V26.4761H34.9314V26.5821H34.8784V26.6353H34.8254V26.7417H34.7723V26.7949H34.7193V26.9014H34.6663V26.9545H34.6133V27.0077H34.5606V27.1138H34.5076V27.167H34.4546V27.2202H34.4016V27.3266H34.3486V27.3798H34.2956V27.433H34.2426V27.5394H34.1895V27.5922H34.1365V27.6987H34.0839V27.7519H34.0309V27.805H33.9778V27.8582H33.9248V27.9647H33.8718V28.0179H33.8188V28.0711H33.7658V28.1239H33.7128V28.2303H33.6598V28.2835H33.6068V28.3367H33.5541V28.3899H33.5011V28.4963H33.4481V28.5495H33.395V28.6027H33.342V28.6556H33.289V28.7087H33.236V28.8152H33.183V28.8684H33.13V28.9216H33.077V28.9748H33.0243V29.0279H32.9713V29.1343H32.9183V29.1872H32.8653V29.2404H32.8123V29.2936H32.7592V29.3468H32.7062V29.4H32.6532V29.4532H32.6002V29.5064H32.5472V29.6128H32.4945V29.6657H32.4415V29.7189H32.3885V29.7721H32.3355V29.8252H32.2825V29.8784H32.2295V29.9316H32.1764V29.9848H32.1234V30.038H32.0704V30.1444H32.0174V30.1973H31.9647V30.2505H31.9117V30.3037H31.8587V30.3569H31.8057V30.4101H31.7527V30.4633H31.6997V30.5165H31.6467V30.5697H31.5937V30.6229H31.5406V30.6761H31.4876V30.7289H31.435V30.7821H31.382V30.8353H31.3289V30.8885H31.2759V30.9417H31.2229V30.9949H31.1699V31.0481H31.1169V31.1013H31.0639V31.1546H31.0109V31.2078H30.9578V31.2606H30.9052V31.3138H30.8522V31.367H30.7992V31.4202H30.7461V31.4734H30.6931V31.5266H30.6401V31.5798H30.5871V31.633H30.5341V31.6862H30.4811V31.7394H30.4281V31.7922H30.3754V31.8454H30.3224V31.8986H30.2694V31.9518H30.2164V32.0051H30.1633V32.0583H30.1103V32.1115H30.0573V32.1646H30.0043V32.2178H29.9513V32.271H29.8986V32.3239H29.8456V32.3771H29.7396V32.4303H29.6866V32.4835H29.6336V32.5367H29.5806V32.5899H29.5275V32.6431H29.4745V32.6963H29.4215V32.7495H29.3689V32.8027H29.3158V32.8555H29.2628V32.9087H29.1568V32.9619H29.1038V33.0152H29.0508V33.0684H28.9978V33.1216H28.9447V33.1748H28.8917V33.2279H28.8391V33.2811H28.7861V33.3343H28.68V33.3872H28.627V33.4404H28.574V33.4936H28.521V33.5468H28.468V33.6H28.415V33.6532H28.362V33.7064H28.2563V33.7596H28.2033V33.8128H28.1502V33.8657H28.0972V33.9188H28.0442V33.972H27.9382V34.0252H27.8852V34.0784H27.8322V34.1316H27.7795V34.1848H27.7265V34.238H27.6205V34.2912H27.5675V34.3444H27.5144V34.3973H27.4614V34.4505H27.4084V34.5037H27.3024V34.5569H27.2497V34.6101H27.1967V34.6633H27.1437V34.7165H27.0377V34.7697H26.9847V34.8229H26.9317V34.8761H26.8786V34.9289H26.7726V34.9821H26.7199V35.0353H26.6669V35.0886H26.6139V35.1418H26.5079V35.195H26.4549V35.2481H26.4019V35.3013H26.3489V35.3545H26.2428V35.4077H26.1902V35.4606H26.1372V35.5138H26.0311V35.567H25.9781V35.6202H25.9251V35.6734H25.8191V35.7266H25.7661V35.7798H25.7134V35.833H25.6074V35.8862H25.5544V35.9394H25.5013V35.9922H25.3953V36.0454H25.3423V36.0986H25.2893V36.1518H25.1836V36.2051H25.1306V36.2583H25.0776V36.3115H24.9716V36.3647H24.9186V36.4179H24.8125V36.4711H24.7595V36.5239H24.7065V36.5771H24.6008V36.6303H24.5478V36.6835H24.4418V36.7367H24.3888V36.7899H24.2827V36.8431H24.2297V36.8963H24.1767V36.9495H24.071V37.0027H24.018V37.0555H23.912V37.1087H23.859V37.1619H23.753V37.2151H23.7V37.2683H23.5943V37.3216H23.5413V37.3748H23.4352V37.4279H23.3822V37.4811H23.2762V37.5343H23.2232V37.5872H23.1172V37.6404H23.0645V37.6936H22.9585V37.7468H22.8524V37.8H22.7994V37.8532H22.6934V37.9064H22.6404V37.9596H22.5347V38.0128H22.4287V38.0657H22.3757V38.1189H22.2696V38.1721H22.2166V38.2252H22.1106V38.2785H22.0049V38.3316H21.8989V38.3848H21.8459V38.438H21.7399V38.4912H21.6338V38.5444H21.5808V38.5973H21.4751V38.6505H21.3691V38.7037H21.2631V38.7569H21.2101V38.8101H21.1041V38.8633H20.9984V38.9165H20.8924V38.9697H20.7863V39.0229H20.6803V39.0761H20.6273V39.1289H20.5213V39.1821H20.4156V39.2353H20.3096V39.2885H20.2035V39.3417H20.0975V39.395H19.9915V39.4482H19.8858V39.5014H19.7798V39.5546H19.6207V39.6077H19.5147V39.6606H19.409V39.7138H19.303V39.767H19.197V39.8202H19.0379V39.8734H18.9319V39.9266H18.7732V39.9798H18.6672V40.033H18.5082V40.0862H18.3495V40.1394H18.2435V40.1922H18.0314V40.2454H17.8724V40.2986H17.7137V40.3518H17.5016V40.405H17.2366V40.4582H16.8658V40.5115H16.336V40.4582H16.1243V40.405H15.9653V40.3518H15.8593V40.2986H15.7536V40.2454H15.7006V40.1922H15.6476V40.1394H15.5945V40.0862H15.5415V39.9798H15.4885V39.8734H15.4355V39.767H15.3825V39.6077H15.3295V39.0757H15.3825V38.8101H15.4355V38.6505H15.4885V38.4912H15.5415V38.3848H15.5945V38.2785H15.6476V38.1721H15.7006V38.0657H15.7536V37.9596H15.8062V37.8532H15.8593V37.8H15.9123V37.6936H15.9653V37.5872H16.0183V37.5343H16.0713V37.4279H16.1243V37.3748H16.1773V37.2683H16.2303V37.2151H16.2834V37.1087H16.336V37.0555H16.389V37.0027H16.4421V36.8963H16.4951V36.8431H16.5481V36.7899H16.6011V36.6835H16.6541V36.6303H16.7071V36.5771H16.7601V36.4711H16.8131V36.4179H16.8658V36.3647H16.9188V36.3115H16.9718V36.2583H17.0248V36.1518H17.0779V36.0986H17.1309V36.0454H17.1839V35.9922H17.2369V35.9394H17.2899V35.8862H17.3429V35.7798H17.3956V35.7266H17.4486V35.6734H17.5016V35.6202H17.5546V35.567H17.6076V35.5138H17.6607V35.4606H17.7137V35.4077H17.7667V35.3545H17.8197V35.3013H17.8724V35.195H17.9254V35.1418H17.9784V35.0886H18.0314V35.0353H18.0844V34.9821H18.1374V34.9289H18.1904V34.8761H18.2435V34.8229H18.2965V34.7697H18.3495V34.7165H18.4021V34.6633H18.4552V34.6101H18.5082V34.5569H18.5612V34.5037H18.6142V34.4505H18.6672V34.3973H18.7202V34.3444H18.7732V34.2912H18.8262V34.238H18.8793V34.1848H18.9319V34.1316H18.9849V34.0784H19.0379V34.0252H19.091V33.972H19.144V33.9188H19.197V33.8657H19.25V33.8128H19.303V33.7596H19.356V33.7064H19.409V33.6532H19.4617V33.6H19.5147V33.5468H19.5677V33.4936H19.6207V33.4404H19.6738V33.3872H19.7268V33.3343H19.7798V33.2811H19.8328V33.2279H19.8858V33.1748H19.9388V33.1216H19.9915V33.0684H20.0445V33.0152H20.0975V32.9619H20.1505V32.9087H20.2035V32.8555H20.2565V32.8027H20.3096V32.7495H20.3626V32.6963H20.4156V32.6431H20.4686V32.5899H20.5213V32.5367H20.5743V32.4835H20.6273V32.4303H20.6803V32.3771H20.7863V32.3239H20.8393V32.2178H20.8924V32.1646H20.9454V32.1115H20.9984V32.0583H21.051V32.0051H21.1041V31.9518H21.1571V31.8986H21.2101V31.8454H21.2631V31.7922H21.3161V31.7394H21.3691V31.6862H21.4221V31.5798H21.4751V31.5266H21.5282V31.4734H21.5808V31.4202H21.6338V31.367H21.6869V31.3138H21.7399V31.2078H21.7929V31.1546H21.8459V31.1013H21.8989V30.9949H21.9519V30.9417H22.0049V30.8885H22.0576V30.8353H22.1106V30.7289H22.1636V30.6761H22.2166V30.5697H22.2696V30.5165H22.3227V30.4101H22.3757V30.3037H22.4287V30.2505H22.4817V30.1444H22.5347V30.038H22.5874V29.9848H22.6404V29.8252H22.6934V29.6657H22.7464V29.5064H22.7994V29.4H22.8524V28.6027H22.7994V28.3899H22.7464V28.2303H22.6934V28.1771H22.6404V28.0711H22.5874V28.0179H22.5347V27.9114H22.4817V27.8582H22.4287V27.805H22.3757V27.7519H22.3227V27.6987H22.2696V27.6454H22.2166V27.5922H22.1636V27.5394H22.1106V27.4862H22.0049V27.433H21.9519V27.3798H21.8459V27.3266H21.7929V27.2734H21.6869V27.2202H21.5808V27.167H21.4751V27.1138H21.3691V27.0606H21.2101V27.0077H21.051V26.9545H20.9454V26.9014H20.7863V26.8482H20.5213V26.7949H20.3096V26.7417H19.9915V26.6885H19.5147V26.6353H19.4617V26.6885H18.5082V26.7417H18.1904V26.7949H17.9254V26.8482H17.7667V26.9014H17.6076V26.9545H17.3956V27.0077H17.2369V27.0606H17.1309V27.1138H17.0248V27.167H16.9188V27.2202H16.7601V27.2734H16.6541V27.3266H16.5481V27.3798H16.4421V27.433H16.336V27.4862H16.2834V27.5394H16.1773V27.5922H16.1243V27.6454H16.0183V27.6987H15.9653V27.7519H15.8593V27.805H15.8062V27.8582H15.7536V27.9114H15.6476V27.9647H15.5945V28.0179H15.4885V28.0711H15.4355V28.1239H15.3825V28.1771H15.3295V28.2303H15.2765V28.2835H15.2238V28.3367H15.1178V28.3899H15.0648V28.4431H15.0117V28.4963H14.9587V28.5495H14.9057V28.6027H14.8527V28.6556H14.7997V28.7087H14.7467V28.7619H14.694V28.8152H14.641V28.8684H14.588V28.9216H14.535V28.9748H14.482V29.0279H14.429V29.0811H14.3759V29.1343H14.3229V29.2404H14.2699V29.2936H14.2169V29.3468H14.1642V29.4H14.1112V29.4532H14.0582V29.5596H14.0052V29.6128H13.9522V29.6657H13.8992V29.7189H13.8462V29.7721H13.7931V29.8252H13.7401V29.9316H13.6871V29.9848H13.6345V30.0912H13.5814V30.1444H13.5284V30.2505H13.4754V30.3037H13.4224V30.4101H13.3694V30.4633H13.3164V30.5697H13.2634V30.6229H13.2104V30.7289H13.1577V30.7821H13.1047V30.8885H13.0517V30.9417H12.9987V31.0481H12.9456V31.1013H12.8926V31.2078H12.8396V31.3138H12.7866V31.4202H12.7336V31.5266H12.6806V31.633H12.6279V31.7394H12.5749V31.8454H12.5219V31.8986H12.4689V32.0051H12.4159V32.1115H12.3628V32.2178H12.3098V32.3239H12.2568V32.4303H12.2038V32.5367H12.1508V32.6431H12.0981V32.7495H12.0451V32.8555H11.9921V33.0152H11.9391V33.1216H11.8861V33.2279H11.8331V33.3872H11.7801V33.4936H11.727V33.6H11.674V33.7596H11.621V33.8657H11.5683V33.972H11.5153V34.1316H11.4623V34.238H11.4093V34.3973H11.3563V34.5569H11.3033V34.7165H11.2503V34.8761H11.1973V35.0886H11.1442V35.2481H11.0912V35.4077H11.0386V35.6202H10.9856V35.9922H10.9325V36.3647H10.8795V36.7899H10.8265V36.8431H10.8795V37.9064H10.9325V38.1189H10.9856V38.3316H11.0386V38.5976H11.0912V38.8101H11.1442V38.9165H11.1973V39.0229H11.2503V39.1821H11.3033V39.2885H11.3563V39.395H11.4093V39.5014H11.4623V39.6077H11.5153V39.7138H11.5683V39.767H11.621V39.8734H11.674V39.9266H11.727V40.033H11.7801V40.0862H11.8331V40.1394H11.8861V40.2454H11.9391V40.2986H11.9921V40.3518H12.0451V40.4582H12.1508V40.5115H12.2038V40.5647H12.2568V40.6179H12.3098V40.6711H12.3628V40.7239H12.4159V40.7771H12.4689V40.8303H12.5219V40.8835H12.5749V40.9367H12.6279V40.9899H12.6806V41.0431H12.7866V41.0963H12.8396V41.1495H12.9456V41.2027H12.9987V41.2556H13.1047V41.3088H13.1577V41.3619H13.2634V41.4151H13.3164V41.4683H13.4224V41.5215H13.5284V41.5747H13.6345V41.6279H13.7401V41.6811H13.8992V41.7343H14.0582V41.7872H14.2169V41.8404H14.482V41.8936H14.7997V41.9468H15.3298V42H16.1773V41.9468H16.8131V41.8936H17.1839V41.8404H17.5016V41.7872H17.7667V41.7343H18.0317V41.6811H18.2435V41.6279H18.4552V41.5747H18.6672V41.5215H18.8262V41.4683H18.9849V41.4151H19.197V41.3619H19.356V41.3088H19.5147V41.2556H19.6738V41.2027H19.8328V41.1495H19.9388V41.0963H20.0975V41.0431H20.2565V40.9899H20.3626V40.9367H20.5213V40.8835H20.6273V40.8303H20.7863V40.7771H20.8924V40.7239H21.051V40.6711H21.1571V40.6179H21.2631V40.5647H21.3691V40.5115H21.5282V40.4582H21.6338V40.405H21.7399V40.3518H21.8459V40.2986H21.9519V40.2454H22.0576V40.1922H22.1636V40.1394H22.3227V40.0862H22.4287V40.033H22.5347V39.9798H22.6404V39.9266H22.7464V39.8734H22.7994V39.8202H22.9055V39.767H23.0115V39.7138H23.1172V39.6606H23.2232V39.6077H23.3292V39.5546H23.4352V39.5014H23.5413V39.4482H23.5943V39.395H23.7V39.3417H23.806V39.2885H23.912V39.2353H24.018V39.1821H24.071V39.1289H24.1767V39.0761H24.2827V39.0229H24.3888V38.9697H24.4418V38.9165H24.5478V38.8633H24.6538V38.8101H24.7065V38.7569H24.8125V38.7037H24.9186V38.6505H24.9716V38.5973H25.0776V38.5444H25.1836V38.4912H25.2363V38.438H25.3423V38.3848H25.3953V38.3316H25.5013V38.2785H25.6074V38.2252H25.6604V38.1721H25.7661V38.1189H25.8191V38.0657H25.9251V38.0128H26.0311V37.9596H26.0841V37.9064H26.1902V37.8532H26.2428V37.8H26.3489V37.7468H26.4019V37.6936H26.5079V37.6404H26.5609V37.5872H26.6669V37.5343H26.7199V37.4811H26.8256V37.4279H26.8786V37.3748H26.9847V37.3216H27.0377V37.2683H27.1437V37.2151H27.1967V37.1619H27.2497V37.1087H27.3554V37.0555H27.4084V37.0027H27.5144V36.9495H27.5675V36.8963H27.6735V36.8431H27.7265V36.7899H27.8322V36.7367H27.8852V36.6835H27.9382V36.6303H28.0442V36.5771H28.0972V36.5239H28.1502V36.4711H28.2563V36.4179H28.3093V36.3647H28.415V36.3115H28.468V36.2583H28.521V36.2051H28.627V36.1518H28.68V36.0986H28.733V36.0454H28.8391V35.9922H28.8917V35.9394H28.9978V35.8862H29.0508V35.833H29.1038V35.7798H29.2098V35.7266H29.2628V35.6734H29.3158V35.6202H29.4215V35.567H29.4745V35.5138H29.5275V35.4606H29.5806V35.4077H29.6866V35.3545H29.7396V35.3013H29.7926V35.2481H29.8986V35.195H29.9513V35.1418H30.0043V35.0886H30.1103V35.0353H30.1633V34.9821H30.2164V34.9289H30.2694V34.8761H30.3754V34.8229H30.4281V34.7697H30.4811V34.7165H30.5871V34.6633H30.6401V34.6101H30.6931V34.5569H30.7461V34.5037H30.8522V34.4505H30.9052V34.3973H30.9578V34.3444H31.0109V34.2912H31.1169V34.238H31.1699V34.1848H31.2229V34.1316H31.2759V34.0784H31.382V34.0252H31.435V33.972H31.4876V33.9188H31.5406V33.8657H31.5937V33.8128H31.6997V33.7596H31.7527V33.7064H31.8057V33.6532H31.8587V33.6H31.9647V33.5468H32.0174V33.4936H32.0704V33.4404H32.1234V33.3872H32.1764V33.3343H32.2825V33.2811H32.3355V33.2279H32.3885V33.1748H32.4415V33.1216H32.4945V33.0684H32.6002V33.0152H32.6532V32.9619H32.7062V32.9087H32.7592V32.8555H32.8123V32.8027H32.8653V32.7495H32.9713V32.6963H33.0243V32.6431H33.077V32.5899H33.13V32.5367H33.183V32.4835H33.236V32.4303H33.342V32.3771H33.395V32.3239H33.4481V32.271H33.5011V32.2178H33.5541V32.1646H33.6068V32.1115H33.6598V32.0583H33.7658V32.0051H33.8188V31.9518H33.8718V31.8986H33.9248V31.8454H33.9778V31.7922H34.0309V31.7394H34.0839V31.6862H34.1365V31.633H34.1895V31.5798H34.2956V31.5266H34.3486V31.4734H34.4016V31.4202H34.4546V31.367H34.5076V31.3138H34.5606V31.2606H34.6133V31.2078H34.6663V31.1546H34.7193V31.1013H34.7723V31.0481H34.8254V30.9949H34.8784V30.9417H34.9314V30.8885H34.9844V30.8353H35.0374V30.7821H35.0904V30.7289H35.1431V30.6761H35.1961V30.6229H35.2491V30.5697H35.3021V30.5165H35.3551V30.4633H35.4081V30.4101H35.4612V30.3569H35.5142V30.3037H35.5672V30.2505H35.6202V30.1973H35.6729V30.1444H35.7259V30.0912H35.7789V30.038H35.8319V29.9848H35.8849V29.9316H35.9379V29.8784H35.9909V29.8252H36.044V29.7721H36.097V29.7189H36.15V29.6657H36.2026V29.5596H36.2557V29.5064H36.3087V29.4532H36.3617V29.4H36.4147V29.3468H36.4677V29.2936H36.5207V29.2404H36.5737V29.1872H36.6267V29.1343H36.6798V29.0811H36.7324V28.9748H36.7854V28.9216H36.8385V28.8684H36.8915V28.8152H36.9445V28.7619H36.9975V28.7087H37.0505V28.6027H37.1035V28.5495H37.1565V28.4963H37.2095V28.4431H37.2622V28.3899H37.3152V28.3367H37.3682V28.2303H37.4212V28.1771H37.4743V28.1239H37.5273V28.0711H37.5803V28.0179H37.6333V27.9114H37.6863V27.8582H37.7393V27.805H37.792V27.6987H37.845V27.6454H37.898V27.5922H37.951V27.5394H38.004V27.433H38.0571V27.3798H38.1101V27.3266H38.1631V27.2734H38.2161V27.167H38.2691V27.1138H38.3218V27.0606H38.3748V26.9545H38.4278V26.9014H38.4808V26.8482H38.5338V26.7417H38.5868V26.6885H38.6398V26.6353H38.6929V26.5289H38.7459V26.4761H38.7985V26.3697H38.8516V26.3165H38.9046V26.2633H38.9576V26.1569H39.0106V26.1037H39.0636V25.9973H39.1166V25.9444H39.1696V25.8912H39.2226V25.7848H39.2757V25.7316H39.3283V25.6252H39.3813V25.5721H39.4343V25.4657H39.4874V25.4128H39.5404V25.3064H39.5934V25.2532H39.6464V25.1468H39.6994V25.0936H39.7524V24.9872H39.8054V24.9343H39.8581V24.8279H39.9111V24.7215H39.9641V24.6684H40.0171V24.562H40.0701V24.5088H40.1232V24.4027H40.1762V24.2963H40.2292V24.2431H40.2822V24.1367H40.3352V24.0303H40.3879V23.9771H40.4409V23.871H40.4939V23.7647H40.5469V23.7115H40.5999V23.605H40.6529V23.4986H40.706V23.3923H40.759V23.3394H40.812V23.233H40.865V23.1266H40.9177V23.0202H40.9707V22.9138H41.0237V22.8078H41.0767V22.7013H41.1297V22.6481H41.1827V22.5417H41.2357V22.4353H41.2888V22.329H41.3418V22.2229H41.3948V22.1165H41.4474V22.0101H41.5005V21.9037H41.5535V21.7973H41.6065V21.6912H41.6595V21.5317H41.7125V21.4252H41.7655V21.3188H41.8185V21.2128H41.8715V21.1064H41.9246V21H41.9772V20.8936H42.0302V20.7344H42.0832V20.628H42.1363V20.4683H42.1893V20.3619H42.2423V20.2027H42.2953V20.0963H42.3483V19.9367H42.4013V19.8303H42.4543V19.671H42.507V19.5646H42.56V19.4051H42.613V19.2454H42.666V19.0862H42.7191V18.9266H42.7721V18.767H42.8251V18.6077H42.8781V18.4481H42.9311V18.2885H42.9838V18.129H43.0368V17.9165H43.0898V17.7037H43.1428V17.5444H43.1958V17.3316H43.2488V17.1188H43.3018V16.9064H43.3549V16.6404H43.4079V16.3744H43.4609V16.1087H43.5136V15.8427H43.5666V15.5243H43.6196V15.0986H43.6726V14.6734H43.7256V13.9822H43.7786V12.3344H43.7256V11.3239H43.6726V10.899H43.6196V10.5801H43.5666V10.261H43.5136V9.94245H43.4609V9.62325H43.4079V9.35725H43.3549V9.19765H43.3018V9.0384H43.2488V8.8256H43.1958V8.666H43.1428V8.50675H43.0898V8.29395H43.0368V8.1347H42.9838V7.9751H42.9311V7.8155H42.8781V7.7091H42.8251V7.60305H42.7721V7.44345H42.7191V7.33705H42.666V7.23065H42.613V7.12425H42.56V6.965H42.507V6.8586H42.4543V6.7522H42.4013V6.6458H42.3483V6.53975H42.2953V6.43335H42.2423V6.32695H42.1893V6.27375H42.1363V6.16735H42.0832V6.11415H42.0302V6.0081H41.9772V5.9017H41.9246V5.8485H41.8715V5.7421H41.8185V5.6357H41.7655V5.5825H41.7125V5.47645H41.6595V5.42325H41.6065V5.31685H41.5535V5.26365H41.5005V5.21045H41.4474V5.10405H41.3948V5.05085H41.3418V4.99765H41.2888V4.9448H41.2357V4.8384H41.1827V4.7852H41.1297V4.732H41.0767V4.6788H41.0237V4.5724H40.9707V4.5192H40.9177V4.466H40.865V4.41315H40.812V4.35995H40.759V4.25355H40.706V4.2H40.6529V4.1468H40.5999V4.0936H40.5469V4.0404H40.4939V3.9872H40.4409V3.93435H40.3352V3.88115H40.2822V3.82795H40.2292V3.77475H40.1762V3.72155H40.1232V3.66835H40.0701V3.61515H40.0171V3.56195H39.9641V3.50875H39.9111V3.45555H39.8581V3.4027H39.8054V3.3495H39.7524V3.2963H39.6994V3.2431H39.5934V3.1899H39.5404V3.1367H39.4874V3.0835H39.3813V3.0303H39.3283V2.9771H39.2757V2.9239H39.1696V2.87105H39.1166V2.8175H39.0636V2.7643H38.9576V2.7111H38.9046V2.6579H38.8516V2.6047H38.7985V2.5515H38.6929V2.499H38.5868V2.4458H38.5338V2.3926H38.4278V2.33975H38.3218V2.28655H38.2691V2.233H38.1631V2.1798H38.1101V2.1266H38.004V2.0734H37.898V2.0202H37.845V1.967H37.7393V1.9138H37.6333V1.8606H37.5273V1.80775H37.4212V1.75455H37.3152V1.701H37.2095V1.6478H37.1035V1.5946H36.9975V1.5414H36.8915V1.4882H36.7854V1.435H36.6798V1.3825H36.5737V1.3293H36.4147V1.27645H36.3087V1.22325H36.15V1.17005H36.044V1.1165H35.8849V1.0633H35.7259V1.0101H35.6202V0.9569H35.4612V0.9037H35.3021V0.8505H35.1431V0.7973H34.9844V0.74445H34.7723V0.69125H34.6133V0.63805H34.4546V0.5845H34.2426V0.5313H34.0309V0.4781H33.8188V0.4249H33.5537V0.3717H33.342V0.31885H33.077V0.266H32.7592V0.2128H32.4415V0.1596H32.1234V0.1064H31.6467V0.0532H31.1699V0H28.574Z" fill="#E20010"/>
</svg>
