
<svg width="75" height="44" viewBox="0 0 75 44" fill="none" xmlns="http://www.w3.org/2000/svg">
<path fill-rule="evenodd" clip-rule="evenodd" d="M54.0762 41.859C60.7724 42.0183 67.6154 41.6998 74.0181 43.958C74.3997 44.0912 74.8195 43.8972 74.9575 43.5208C75.0925 43.1445 74.8958 42.7305 74.5142 42.5944C67.9618 40.2841 60.9632 40.5736 54.1114 40.4114C53.7063 40.3999 53.3687 40.7183 53.3599 41.1179C53.3481 41.5174 53.671 41.8474 54.0762 41.859Z" fill="url(#paint0_linear_0_3841)"/>
<path fill-rule="evenodd" clip-rule="evenodd" d="M53.4744 32.271C55.5616 30.377 57.8397 28.9581 60.5933 28.2549C60.9867 28.1547 61.2215 27.7595 61.1217 27.3727C61.019 26.9859 60.6168 26.7534 60.2264 26.8536C57.232 27.6179 54.7514 29.1471 52.4821 31.2053C52.1827 31.4757 52.1621 31.934 52.4381 32.2282C52.7111 32.522 53.1779 32.5414 53.4744 32.271Z" fill="url(#paint1_linear_0_3841)"/>
<path fill-rule="evenodd" clip-rule="evenodd" d="M47.6677 11.5929C48.6248 8.35751 50.5094 5.82657 53.3981 3.99885C53.7387 3.78316 53.8385 3.335 53.6183 2.99887C53.4011 2.66274 52.946 2.56487 52.6055 2.78056C49.4086 4.80428 47.3184 7.60506 46.2586 11.1872C46.1441 11.5706 46.3702 11.973 46.7577 12.0848C47.1481 12.1968 47.5562 11.9762 47.6677 11.5929Z" fill="url(#paint2_linear_0_3841)"/>
<path fill-rule="evenodd" clip-rule="evenodd" d="M14.6856 7.20218C14.1161 7.86314 13.6052 8.57535 13.1708 9.3336C12.977 9.67117 12.6365 10.3886 12.5836 11.0038C12.5249 11.6593 12.7509 12.2123 13.3322 12.5035C14.1043 12.8897 14.7208 12.8495 15.1964 12.6159C15.6543 12.3915 16.0125 11.9505 16.2385 11.3593C16.6701 10.2294 16.6055 8.5024 16.3794 7.51689C16.9871 6.89848 17.6535 6.33768 18.3669 5.83913C23.6804 2.12608 31.4746 3.49521 37.4721 9.04698C39.5711 10.9908 40.581 15.073 41.1065 19.4774C41.9255 26.3352 41.4587 33.9946 41.3941 36.2387C41.3795 36.7928 41.4323 37.1217 41.4617 37.1874C41.5996 37.5105 41.8433 37.5945 42.0136 37.6263C42.2602 37.6697 42.4568 37.6234 42.6153 37.5423C42.8297 37.4312 43.0058 37.2355 43.088 36.9335C43.1321 36.7667 43.1438 36.5345 43.1379 36.287C43.132 36.1153 43.0968 35.9277 43.132 35.8047C43.361 35.0166 43.637 34.2471 43.907 33.472C44.8083 30.8667 45.9738 28.4252 47.2684 25.9866C51.3812 18.238 55.359 10.0507 62.1022 4.1472C62.4046 3.88229 62.434 3.42428 62.1639 3.1255C61.8967 2.82672 61.4329 2.79949 61.1276 3.06469C54.2494 9.0849 50.1629 17.4131 45.9679 25.3152C44.867 27.3896 43.8571 29.4669 43.0175 31.6397C43.1027 27.7961 43.0704 22.4756 42.357 17.7681C41.7229 13.5814 40.5164 9.88136 38.4761 7.99168C31.9061 1.90981 23.3369 0.590493 17.5185 4.6582C16.8961 5.09363 16.3031 5.5725 15.7512 6.09189C12.7069 0.670696 6.18978 -1.50214 0.430025 1.09077C0.0601327 1.25666 -0.101325 1.68631 0.0660069 2.04965C0.236275 2.413 0.670736 2.57339 1.04063 2.4075C6.23086 0.0711041 12.1169 2.15619 14.6856 7.20218ZM15.1112 9.01715C14.8734 9.34836 14.6533 9.69173 14.4478 10.0467C14.3392 10.2372 14.1513 10.6034 14.072 10.9618C14.0544 11.0458 14.0515 11.1772 14.0515 11.238C14.254 11.3365 14.4125 11.384 14.5417 11.32C14.7032 11.2412 14.7854 11.0559 14.8646 10.8489C15.0643 10.3295 15.1288 9.64106 15.1112 9.01715Z" fill="url(#paint3_linear_0_3841)"/>
<defs>
<linearGradient id="paint0_linear_0_3841" x1="53.3596" y1="42.2056" x2="75" y2="42.2056" gradientUnits="userSpaceOnUse">
<stop stop-color="#B224EF"/>
<stop offset="1" stop-color="#7579FF"/>
</linearGradient>
<linearGradient id="paint1_linear_0_3841" x1="52.2437" y1="29.6461" x2="61.1447" y2="29.6461" gradientUnits="userSpaceOnUse">
<stop stop-color="#B224EF"/>
<stop offset="1" stop-color="#7579FF"/>
</linearGradient>
<linearGradient id="paint2_linear_0_3841" x1="46.2288" y1="7.38997" x2="53.7354" y2="7.38997" gradientUnits="userSpaceOnUse">
<stop stop-color="#B224EF"/>
<stop offset="1" stop-color="#7579FF"/>
</linearGradient>
<linearGradient id="paint3_linear_0_3841" x1="0" y1="18.8215" x2="62.3491" y2="18.8215" gradientUnits="userSpaceOnUse">
<stop stop-color="#B224EF"/>
<stop offset="1" stop-color="#7579FF"/>
</linearGradient>
</defs>
</svg>
