<svg width="279" height="32" viewBox="0 0 279 32" fill="none" xmlns="http://www.w3.org/2000/svg">
<path d="M26.0635 16C25.9828 16 25.9205 15.978 25.8765 15.934C25.8325 15.8827 25.8105 15.8203 25.8105 15.747V8.564C25.8105 8.48333 25.8325 8.421 25.8765 8.377C25.9205 8.32567 25.9828 8.3 26.0635 8.3H30.5515C30.6321 8.3 30.6945 8.32567 30.7385 8.377C30.7898 8.421 30.8155 8.48333 30.8155 8.564V9.004C30.8155 9.08467 30.7898 9.147 30.7385 9.191C30.6945 9.235 30.6321 9.257 30.5515 9.257H26.8775V11.82H30.3315C30.4121 11.82 30.4745 11.8457 30.5185 11.897C30.5698 11.941 30.5955 12.0033 30.5955 12.084V12.524C30.5955 12.5973 30.5698 12.6597 30.5185 12.711C30.4745 12.755 30.4121 12.777 30.3315 12.777H26.8775V15.747C26.8775 15.8203 26.8518 15.8827 26.8005 15.934C26.7565 15.978 26.6941 16 26.6135 16H26.0635ZM32.3443 16C32.2709 16 32.2086 15.978 32.1573 15.934C32.1133 15.8827 32.0913 15.8203 32.0913 15.747V10.533C32.0913 10.4597 32.1133 10.401 32.1573 10.357C32.2086 10.3057 32.2709 10.28 32.3443 10.28H32.8723C32.9456 10.28 33.0043 10.3057 33.0483 10.357C33.0996 10.401 33.1253 10.4597 33.1253 10.533V15.747C33.1253 15.8203 33.0996 15.8827 33.0483 15.934C33.0043 15.978 32.9456 16 32.8723 16H32.3443ZM32.2563 9.213C32.1829 9.213 32.1206 9.191 32.0693 9.147C32.0253 9.09567 32.0033 9.03333 32.0033 8.96V8.366C32.0033 8.29267 32.0253 8.23033 32.0693 8.179C32.1206 8.12767 32.1829 8.102 32.2563 8.102H32.9493C33.0226 8.102 33.0849 8.12767 33.1363 8.179C33.1876 8.23033 33.2133 8.29267 33.2133 8.366V8.96C33.2133 9.03333 33.1876 9.09567 33.1363 9.147C33.0849 9.191 33.0226 9.213 32.9493 9.213H32.2563ZM35.0193 16C34.946 16 34.8837 15.978 34.8323 15.934C34.7883 15.8827 34.7663 15.8203 34.7663 15.747V8.443C34.7663 8.36967 34.7883 8.311 34.8323 8.267C34.8837 8.21567 34.946 8.19 35.0193 8.19H35.5363C35.617 8.19 35.6793 8.21567 35.7233 8.267C35.7673 8.311 35.7893 8.36967 35.7893 8.443V15.747C35.7893 15.8203 35.7673 15.8827 35.7233 15.934C35.6793 15.978 35.617 16 35.5363 16H35.0193ZM39.6632 16C39.2525 16 38.9188 15.923 38.6621 15.769C38.4055 15.6077 38.2185 15.384 38.1011 15.098C37.9838 14.8047 37.9251 14.46 37.9251 14.064V11.16H37.0671C36.9938 11.16 36.9315 11.138 36.8801 11.094C36.8361 11.0427 36.8141 10.9803 36.8141 10.907V10.533C36.8141 10.4597 36.8361 10.401 36.8801 10.357C36.9315 10.3057 36.9938 10.28 37.0671 10.28H37.9251V8.443C37.9251 8.36967 37.9471 8.311 37.9911 8.267C38.0425 8.21567 38.1048 8.19 38.1781 8.19H38.6952C38.7685 8.19 38.8272 8.21567 38.8712 8.267C38.9225 8.311 38.9482 8.36967 38.9482 8.443V10.28H40.3122C40.3928 10.28 40.4551 10.3057 40.4992 10.357C40.5432 10.401 40.5652 10.4597 40.5652 10.533V10.907C40.5652 10.9803 40.5432 11.0427 40.4992 11.094C40.4551 11.138 40.3928 11.16 40.3122 11.16H38.9482V13.987C38.9482 14.3317 39.0068 14.603 39.1242 14.801C39.2415 14.999 39.4505 15.098 39.7512 15.098H40.4222C40.4955 15.098 40.5542 15.1237 40.5982 15.175C40.6495 15.219 40.6752 15.2777 40.6752 15.351V15.747C40.6752 15.8203 40.6495 15.8827 40.5982 15.934C40.5542 15.978 40.4955 16 40.4222 16H39.6632ZM27.9555 29.11C27.1928 29.11 26.5878 28.879 26.1405 28.417C25.6931 27.9477 25.4475 27.3097 25.4035 26.503C25.3961 26.4077 25.3925 26.2867 25.3925 26.14C25.3925 25.986 25.3961 25.8613 25.4035 25.766C25.4328 25.2453 25.5538 24.7907 25.7665 24.402C25.9791 24.006 26.2688 23.7017 26.6355 23.489C27.0095 23.2763 27.4458 23.17 27.9445 23.17C28.5018 23.17 28.9675 23.2873 29.3415 23.522C29.7228 23.7567 30.0125 24.0903 30.2105 24.523C30.4085 24.9557 30.5075 25.4617 30.5075 26.041V26.228C30.5075 26.3087 30.4818 26.371 30.4305 26.415C30.3865 26.459 30.3278 26.481 30.2545 26.481H26.4485C26.4485 26.4883 26.4485 26.503 26.4485 26.525C26.4485 26.547 26.4485 26.5653 26.4485 26.58C26.4631 26.8807 26.5291 27.163 26.6465 27.427C26.7638 27.6837 26.9325 27.8927 27.1525 28.054C27.3798 28.2153 27.6438 28.296 27.9445 28.296C28.2085 28.296 28.4285 28.2557 28.6045 28.175C28.7805 28.0943 28.9235 28.0063 29.0335 27.911C29.1435 27.8083 29.2168 27.7277 29.2535 27.669C29.3195 27.581 29.3708 27.5297 29.4075 27.515C29.4441 27.493 29.5028 27.482 29.5835 27.482H30.1225C30.1885 27.482 30.2435 27.504 30.2875 27.548C30.3388 27.5847 30.3608 27.6397 30.3535 27.713C30.3461 27.823 30.2875 27.9587 30.1775 28.12C30.0675 28.274 29.9098 28.428 29.7045 28.582C29.5065 28.736 29.2571 28.8643 28.9565 28.967C28.6631 29.0623 28.3295 29.11 27.9555 29.11ZM26.4485 25.722H29.4625V25.689C29.4625 25.359 29.4001 25.0657 29.2755 24.809C29.1581 24.5523 28.9858 24.3507 28.7585 24.204C28.5311 24.05 28.2598 23.973 27.9445 23.973C27.6291 23.973 27.3578 24.05 27.1305 24.204C26.9105 24.3507 26.7418 24.5523 26.6245 24.809C26.5071 25.0657 26.4485 25.359 26.4485 25.689V25.722ZM32.0757 29C32.0024 29 31.9401 28.978 31.8887 28.934C31.8447 28.8827 31.8227 28.8203 31.8227 28.747V23.544C31.8227 23.4707 31.8447 23.4083 31.8887 23.357C31.9401 23.3057 32.0024 23.28 32.0757 23.28H32.5817C32.6551 23.28 32.7174 23.3057 32.7687 23.357C32.8201 23.4083 32.8457 23.4707 32.8457 23.544V24.028C32.9924 23.7787 33.1941 23.5917 33.4507 23.467C33.7074 23.3423 34.0191 23.28 34.3857 23.28H34.8147C34.8881 23.28 34.9467 23.3057 34.9907 23.357C35.0421 23.401 35.0677 23.4597 35.0677 23.533V23.984C35.0677 24.0573 35.0421 24.116 34.9907 24.16C34.9467 24.204 34.8881 24.226 34.8147 24.226H34.1547C33.7587 24.226 33.4471 24.3433 33.2197 24.578C32.9924 24.8053 32.8787 25.117 32.8787 25.513V28.747C32.8787 28.8203 32.8531 28.8827 32.8017 28.934C32.7504 28.978 32.6881 29 32.6147 29H32.0757ZM37.9814 29.11C37.5708 29.11 37.2188 29.0587 36.9254 28.956C36.6321 28.8533 36.3938 28.7287 36.2104 28.582C36.0271 28.4353 35.8878 28.2887 35.7924 28.142C35.7044 27.9953 35.6568 27.878 35.6494 27.79C35.6421 27.7093 35.6678 27.647 35.7264 27.603C35.7851 27.559 35.8438 27.537 35.9024 27.537H36.3974C36.4341 27.537 36.4634 27.5443 36.4854 27.559C36.5148 27.5663 36.5514 27.5957 36.5954 27.647C36.6908 27.7497 36.7971 27.8523 36.9144 27.955C37.0318 28.0577 37.1748 28.142 37.3434 28.208C37.5194 28.274 37.7358 28.307 37.9924 28.307C38.3664 28.307 38.6744 28.2373 38.9164 28.098C39.1584 27.9513 39.2794 27.7387 39.2794 27.46C39.2794 27.2767 39.2281 27.13 39.1254 27.02C39.0301 26.91 38.8541 26.811 38.5974 26.723C38.3481 26.635 38.0034 26.5433 37.5634 26.448C37.1234 26.3453 36.7751 26.2207 36.5184 26.074C36.2618 25.92 36.0784 25.7403 35.9684 25.535C35.8584 25.3223 35.8034 25.084 35.8034 24.82C35.8034 24.5487 35.8841 24.2883 36.0454 24.039C36.2068 23.7823 36.4414 23.5733 36.7494 23.412C37.0648 23.2507 37.4571 23.17 37.9264 23.17C38.3078 23.17 38.6341 23.2177 38.9054 23.313C39.1768 23.4083 39.4004 23.5293 39.5764 23.676C39.7524 23.8153 39.8844 23.9547 39.9724 24.094C40.0604 24.2333 40.1081 24.3507 40.1154 24.446C40.1228 24.5193 40.1008 24.5817 40.0494 24.633C39.9981 24.677 39.9394 24.699 39.8734 24.699H39.4114C39.3601 24.699 39.3161 24.688 39.2794 24.666C39.2501 24.644 39.2208 24.6183 39.1914 24.589C39.1181 24.4937 39.0301 24.3983 38.9274 24.303C38.8321 24.2077 38.7038 24.1307 38.5424 24.072C38.3884 24.006 38.1831 23.973 37.9264 23.973C37.5598 23.973 37.2848 24.05 37.1014 24.204C36.9181 24.358 36.8264 24.5523 36.8264 24.787C36.8264 24.9263 36.8668 25.051 36.9474 25.161C37.0281 25.271 37.1821 25.37 37.4094 25.458C37.6368 25.546 37.9741 25.6413 38.4214 25.744C38.9054 25.8393 39.2868 25.9677 39.5654 26.129C39.8441 26.2903 40.0421 26.4773 40.1594 26.69C40.2768 26.9027 40.3354 27.1483 40.3354 27.427C40.3354 27.735 40.2474 28.0173 40.0714 28.274C39.8954 28.5307 39.6314 28.736 39.2794 28.89C38.9274 29.0367 38.4948 29.11 37.9814 29.11Z" fill="#222222"/>
<g clip-path="url(#clip0_122_1528)">
<path d="M7.21552 18H10.4224V16H7.21552V18ZM1.60345 6V8H16.0345V6H1.60345ZM4.00863 13H13.6293V11H4.00863V13Z" fill="#222222"/>
</g>
<g clip-path="url(#clip1_122_1528)">
<path d="M100.828 17.01V10H99.2241V17.01H96.819L100.026 21L103.233 17.01H100.828ZM95.2155 3L92.0086 6.99H94.4138V14H96.0172V6.99H98.4224L95.2155 3Z" fill="#222222"/>
</g>
<path d="M113.262 16C113.181 16 113.119 15.978 113.075 15.934C113.031 15.8827 113.009 15.8203 113.009 15.747V8.564C113.009 8.48333 113.031 8.421 113.075 8.377C113.119 8.32567 113.181 8.3 113.262 8.3H116.056C116.598 8.3 117.068 8.388 117.464 8.564C117.867 8.74 118.179 9.004 118.399 9.356C118.619 9.70067 118.729 10.1333 118.729 10.654C118.729 11.1747 118.619 11.6073 118.399 11.952C118.179 12.2967 117.867 12.557 117.464 12.733C117.068 12.909 116.598 12.997 116.056 12.997H114.109V15.747C114.109 15.8203 114.083 15.8827 114.032 15.934C113.988 15.978 113.925 16 113.845 16H113.262ZM114.098 12.073H116.001C116.543 12.073 116.95 11.952 117.222 11.71C117.493 11.468 117.629 11.116 117.629 10.654C117.629 10.1993 117.497 9.84733 117.233 9.598C116.969 9.34867 116.558 9.224 116.001 9.224H114.098V12.073ZM120.176 16C120.103 16 120.041 15.978 119.989 15.934C119.945 15.8827 119.923 15.8203 119.923 15.747V10.544C119.923 10.4707 119.945 10.4083 119.989 10.357C120.041 10.3057 120.103 10.28 120.176 10.28H120.682C120.756 10.28 120.818 10.3057 120.869 10.357C120.921 10.4083 120.946 10.4707 120.946 10.544V11.028C121.093 10.7787 121.295 10.5917 121.551 10.467C121.808 10.3423 122.12 10.28 122.486 10.28H122.915C122.989 10.28 123.047 10.3057 123.091 10.357C123.143 10.401 123.168 10.4597 123.168 10.533V10.984C123.168 11.0573 123.143 11.116 123.091 11.16C123.047 11.204 122.989 11.226 122.915 11.226H122.255C121.859 11.226 121.548 11.3433 121.32 11.578C121.093 11.8053 120.979 12.117 120.979 12.513V15.747C120.979 15.8203 120.954 15.8827 120.902 15.934C120.851 15.978 120.789 16 120.715 16H120.176ZM124.355 16C124.282 16 124.219 15.978 124.168 15.934C124.124 15.8827 124.102 15.8203 124.102 15.747V10.533C124.102 10.4597 124.124 10.401 124.168 10.357C124.219 10.3057 124.282 10.28 124.355 10.28H124.883C124.956 10.28 125.015 10.3057 125.059 10.357C125.11 10.401 125.136 10.4597 125.136 10.533V15.747C125.136 15.8203 125.11 15.8827 125.059 15.934C125.015 15.978 124.956 16 124.883 16H124.355ZM124.267 9.213C124.194 9.213 124.131 9.191 124.08 9.147C124.036 9.09567 124.014 9.03333 124.014 8.96V8.366C124.014 8.29267 124.036 8.23033 124.08 8.179C124.131 8.12767 124.194 8.102 124.267 8.102H124.96C125.033 8.102 125.096 8.12767 125.147 8.179C125.198 8.23033 125.224 8.29267 125.224 8.366V8.96C125.224 9.03333 125.198 9.09567 125.147 9.147C125.096 9.191 125.033 9.213 124.96 9.213H124.267ZM129.076 16.11C128.555 16.11 128.104 16.011 127.723 15.813C127.349 15.6077 127.059 15.318 126.854 14.944C126.649 14.5627 126.539 14.108 126.524 13.58C126.517 13.47 126.513 13.3233 126.513 13.14C126.513 12.9567 126.517 12.81 126.524 12.7C126.539 12.172 126.649 11.721 126.854 11.347C127.059 10.9657 127.349 10.676 127.723 10.478C128.104 10.2727 128.555 10.17 129.076 10.17C129.501 10.17 129.864 10.2287 130.165 10.346C130.473 10.4633 130.726 10.6137 130.924 10.797C131.122 10.9803 131.269 11.1783 131.364 11.391C131.467 11.6037 131.522 11.8053 131.529 11.996C131.536 12.0693 131.514 12.128 131.463 12.172C131.412 12.216 131.349 12.238 131.276 12.238H130.748C130.675 12.238 130.62 12.2233 130.583 12.194C130.546 12.1573 130.51 12.0987 130.473 12.018C130.341 11.6587 130.161 11.4057 129.934 11.259C129.707 11.1123 129.424 11.039 129.087 11.039C128.647 11.039 128.288 11.1747 128.009 11.446C127.738 11.7173 127.591 12.1537 127.569 12.755C127.562 13.019 127.562 13.2757 127.569 13.525C127.591 14.1337 127.738 14.5737 128.009 14.845C128.288 15.109 128.647 15.241 129.087 15.241C129.424 15.241 129.707 15.1677 129.934 15.021C130.161 14.8743 130.341 14.6213 130.473 14.262C130.51 14.1813 130.546 14.1227 130.583 14.086C130.62 14.0493 130.675 14.031 130.748 14.031H131.276C131.349 14.031 131.412 14.0567 131.463 14.108C131.514 14.152 131.536 14.2107 131.529 14.284C131.522 14.438 131.489 14.5957 131.43 14.757C131.371 14.9183 131.276 15.0833 131.144 15.252C131.019 15.4133 130.862 15.56 130.671 15.692C130.48 15.8167 130.253 15.9193 129.989 16C129.725 16.0733 129.421 16.11 129.076 16.11ZM135.123 16.11C134.361 16.11 133.756 15.879 133.308 15.417C132.861 14.9477 132.615 14.3097 132.571 13.503C132.564 13.4077 132.56 13.2867 132.56 13.14C132.56 12.986 132.564 12.8613 132.571 12.766C132.601 12.2453 132.722 11.7907 132.934 11.402C133.147 11.006 133.437 10.7017 133.803 10.489C134.177 10.2763 134.614 10.17 135.112 10.17C135.67 10.17 136.135 10.2873 136.509 10.522C136.891 10.7567 137.18 11.0903 137.378 11.523C137.576 11.9557 137.675 12.4617 137.675 13.041V13.228C137.675 13.3087 137.65 13.371 137.598 13.415C137.554 13.459 137.496 13.481 137.422 13.481H133.616C133.616 13.4883 133.616 13.503 133.616 13.525C133.616 13.547 133.616 13.5653 133.616 13.58C133.631 13.8807 133.697 14.163 133.814 14.427C133.932 14.6837 134.1 14.8927 134.32 15.054C134.548 15.2153 134.812 15.296 135.112 15.296C135.376 15.296 135.596 15.2557 135.772 15.175C135.948 15.0943 136.091 15.0063 136.201 14.911C136.311 14.8083 136.385 14.7277 136.421 14.669C136.487 14.581 136.539 14.5297 136.575 14.515C136.612 14.493 136.671 14.482 136.751 14.482H137.29C137.356 14.482 137.411 14.504 137.455 14.548C137.507 14.5847 137.529 14.6397 137.521 14.713C137.514 14.823 137.455 14.9587 137.345 15.12C137.235 15.274 137.078 15.428 136.872 15.582C136.674 15.736 136.425 15.8643 136.124 15.967C135.831 16.0623 135.497 16.11 135.123 16.11ZM133.616 12.722H136.63V12.689C136.63 12.359 136.568 12.0657 136.443 11.809C136.326 11.5523 136.154 11.3507 135.926 11.204C135.699 11.05 135.428 10.973 135.112 10.973C134.797 10.973 134.526 11.05 134.298 11.204C134.078 11.3507 133.91 11.5523 133.792 11.809C133.675 12.0657 133.616 12.359 133.616 12.689V12.722ZM139.189 12.15C139.115 12.15 139.053 12.128 139.002 12.084C138.958 12.0327 138.936 11.9703 138.936 11.897V11.127C138.936 11.0537 138.958 10.995 139.002 10.951C139.053 10.8997 139.115 10.874 139.189 10.874H139.981C140.054 10.874 140.113 10.8997 140.157 10.951C140.208 10.995 140.234 11.0537 140.234 11.127V11.897C140.234 11.9703 140.208 12.0327 140.157 12.084C140.113 12.128 140.054 12.15 139.981 12.15H139.189ZM139.189 16C139.115 16 139.053 15.978 139.002 15.934C138.958 15.8827 138.936 15.8203 138.936 15.747V14.977C138.936 14.9037 138.958 14.845 139.002 14.801C139.053 14.7497 139.115 14.724 139.189 14.724H139.981C140.054 14.724 140.113 14.7497 140.157 14.801C140.208 14.845 140.234 14.9037 140.234 14.977V15.747C140.234 15.8203 140.208 15.8827 140.157 15.934C140.113 15.978 140.054 16 139.981 16H139.189ZM144.765 16C144.692 16 144.63 15.978 144.578 15.934C144.534 15.8827 144.512 15.8203 144.512 15.747V8.443C144.512 8.36967 144.534 8.311 144.578 8.267C144.63 8.21567 144.692 8.19 144.765 8.19H145.282C145.363 8.19 145.425 8.21567 145.469 8.267C145.513 8.311 145.535 8.36967 145.535 8.443V15.747C145.535 15.8203 145.513 15.8827 145.469 15.934C145.425 15.978 145.363 16 145.282 16H144.765ZM149.519 16.11C148.962 16.11 148.496 16.0037 148.122 15.791C147.748 15.5783 147.462 15.285 147.264 14.911C147.066 14.5297 146.956 14.097 146.934 13.613C146.927 13.4883 146.923 13.3307 146.923 13.14C146.923 12.942 146.927 12.7843 146.934 12.667C146.956 12.1757 147.066 11.743 147.264 11.369C147.47 10.995 147.759 10.7017 148.133 10.489C148.507 10.2763 148.969 10.17 149.519 10.17C150.069 10.17 150.531 10.2763 150.905 10.489C151.279 10.7017 151.565 10.995 151.763 11.369C151.969 11.743 152.082 12.1757 152.104 12.667C152.112 12.7843 152.115 12.942 152.115 13.14C152.115 13.3307 152.112 13.4883 152.104 13.613C152.082 14.097 151.972 14.5297 151.774 14.911C151.576 15.285 151.29 15.5783 150.916 15.791C150.542 16.0037 150.077 16.11 149.519 16.11ZM149.519 15.263C149.974 15.263 150.337 15.12 150.608 14.834C150.88 14.5407 151.026 14.1153 151.048 13.558C151.056 13.448 151.059 13.3087 151.059 13.14C151.059 12.9713 151.056 12.832 151.048 12.722C151.026 12.1647 150.88 11.743 150.608 11.457C150.337 11.1637 149.974 11.017 149.519 11.017C149.065 11.017 148.698 11.1637 148.419 11.457C148.148 11.743 148.005 12.1647 147.99 12.722C147.983 12.832 147.979 12.9713 147.979 13.14C147.979 13.3087 147.983 13.448 147.99 13.558C148.005 14.1153 148.148 14.5407 148.419 14.834C148.698 15.12 149.065 15.263 149.519 15.263ZM154.86 16C154.765 16 154.692 15.978 154.64 15.934C154.589 15.8827 154.545 15.813 154.508 15.725L152.946 10.621C152.932 10.5843 152.924 10.5477 152.924 10.511C152.924 10.445 152.946 10.39 152.99 10.346C153.042 10.302 153.097 10.28 153.155 10.28H153.639C153.72 10.28 153.782 10.302 153.826 10.346C153.87 10.39 153.9 10.4303 153.914 10.467L155.135 14.614L156.444 10.511C156.459 10.4597 156.488 10.4083 156.532 10.357C156.584 10.3057 156.657 10.28 156.752 10.28H157.126C157.222 10.28 157.295 10.3057 157.346 10.357C157.398 10.4083 157.427 10.4597 157.434 10.511L158.743 14.614L159.964 10.467C159.972 10.4303 159.997 10.39 160.041 10.346C160.085 10.302 160.148 10.28 160.228 10.28H160.723C160.782 10.28 160.833 10.302 160.877 10.346C160.921 10.39 160.943 10.445 160.943 10.511C160.943 10.5477 160.936 10.5843 160.921 10.621L159.37 15.725C159.341 15.813 159.301 15.8827 159.249 15.934C159.198 15.978 159.117 16 159.007 16H158.578C158.483 16 158.402 15.978 158.336 15.934C158.278 15.8827 158.237 15.813 158.215 15.725L156.939 11.787L155.663 15.725C155.634 15.813 155.59 15.8827 155.531 15.934C155.473 15.978 155.392 16 155.289 16H154.86ZM164.299 16.11C163.537 16.11 162.932 15.879 162.484 15.417C162.037 14.9477 161.791 14.3097 161.747 13.503C161.74 13.4077 161.736 13.2867 161.736 13.14C161.736 12.986 161.74 12.8613 161.747 12.766C161.777 12.2453 161.898 11.7907 162.11 11.402C162.323 11.006 162.613 10.7017 162.979 10.489C163.353 10.2763 163.79 10.17 164.288 10.17C164.846 10.17 165.311 10.2873 165.685 10.522C166.067 10.7567 166.356 11.0903 166.554 11.523C166.752 11.9557 166.851 12.4617 166.851 13.041V13.228C166.851 13.3087 166.826 13.371 166.774 13.415C166.73 13.459 166.672 13.481 166.598 13.481H162.792C162.792 13.4883 162.792 13.503 162.792 13.525C162.792 13.547 162.792 13.5653 162.792 13.58C162.807 13.8807 162.873 14.163 162.99 14.427C163.108 14.6837 163.276 14.8927 163.496 15.054C163.724 15.2153 163.988 15.296 164.288 15.296C164.552 15.296 164.772 15.2557 164.948 15.175C165.124 15.0943 165.267 15.0063 165.377 14.911C165.487 14.8083 165.561 14.7277 165.597 14.669C165.663 14.581 165.715 14.5297 165.751 14.515C165.788 14.493 165.847 14.482 165.927 14.482H166.466C166.532 14.482 166.587 14.504 166.631 14.548C166.683 14.5847 166.705 14.6397 166.697 14.713C166.69 14.823 166.631 14.9587 166.521 15.12C166.411 15.274 166.254 15.428 166.048 15.582C165.85 15.736 165.601 15.8643 165.3 15.967C165.007 16.0623 164.673 16.11 164.299 16.11ZM162.792 12.722H165.806V12.689C165.806 12.359 165.744 12.0657 165.619 11.809C165.502 11.5523 165.33 11.3507 165.102 11.204C164.875 11.05 164.604 10.973 164.288 10.973C163.973 10.973 163.702 11.05 163.474 11.204C163.254 11.3507 163.086 11.5523 162.968 11.809C162.851 12.0657 162.792 12.359 162.792 12.689V12.722ZM170.146 16.11C169.736 16.11 169.384 16.0587 169.09 15.956C168.797 15.8533 168.559 15.7287 168.375 15.582C168.192 15.4353 168.053 15.2887 167.957 15.142C167.869 14.9953 167.822 14.878 167.814 14.79C167.807 14.7093 167.833 14.647 167.891 14.603C167.95 14.559 168.009 14.537 168.067 14.537H168.562C168.599 14.537 168.628 14.5443 168.65 14.559C168.68 14.5663 168.716 14.5957 168.76 14.647C168.856 14.7497 168.962 14.8523 169.079 14.955C169.197 15.0577 169.34 15.142 169.508 15.208C169.684 15.274 169.901 15.307 170.157 15.307C170.531 15.307 170.839 15.2373 171.081 15.098C171.323 14.9513 171.444 14.7387 171.444 14.46C171.444 14.2767 171.393 14.13 171.29 14.02C171.195 13.91 171.019 13.811 170.762 13.723C170.513 13.635 170.168 13.5433 169.728 13.448C169.288 13.3453 168.94 13.2207 168.683 13.074C168.427 12.92 168.243 12.7403 168.133 12.535C168.023 12.3223 167.968 12.084 167.968 11.82C167.968 11.5487 168.049 11.2883 168.21 11.039C168.372 10.7823 168.606 10.5733 168.914 10.412C169.23 10.2507 169.622 10.17 170.091 10.17C170.473 10.17 170.799 10.2177 171.07 10.313C171.342 10.4083 171.565 10.5293 171.741 10.676C171.917 10.8153 172.049 10.9547 172.137 11.094C172.225 11.2333 172.273 11.3507 172.28 11.446C172.288 11.5193 172.266 11.5817 172.214 11.633C172.163 11.677 172.104 11.699 172.038 11.699H171.576C171.525 11.699 171.481 11.688 171.444 11.666C171.415 11.644 171.386 11.6183 171.356 11.589C171.283 11.4937 171.195 11.3983 171.092 11.303C170.997 11.2077 170.869 11.1307 170.707 11.072C170.553 11.006 170.348 10.973 170.091 10.973C169.725 10.973 169.45 11.05 169.266 11.204C169.083 11.358 168.991 11.5523 168.991 11.787C168.991 11.9263 169.032 12.051 169.112 12.161C169.193 12.271 169.347 12.37 169.574 12.458C169.802 12.546 170.139 12.6413 170.586 12.744C171.07 12.8393 171.452 12.9677 171.73 13.129C172.009 13.2903 172.207 13.4773 172.324 13.69C172.442 13.9027 172.5 14.1483 172.5 14.427C172.5 14.735 172.412 15.0173 172.236 15.274C172.06 15.5307 171.796 15.736 171.444 15.89C171.092 16.0367 170.66 16.11 170.146 16.11ZM175.996 16C175.585 16 175.252 15.923 174.995 15.769C174.738 15.6077 174.551 15.384 174.434 15.098C174.317 14.8047 174.258 14.46 174.258 14.064V11.16H173.4C173.327 11.16 173.264 11.138 173.213 11.094C173.169 11.0427 173.147 10.9803 173.147 10.907V10.533C173.147 10.4597 173.169 10.401 173.213 10.357C173.264 10.3057 173.327 10.28 173.4 10.28H174.258V8.443C174.258 8.36967 174.28 8.311 174.324 8.267C174.375 8.21567 174.438 8.19 174.511 8.19H175.028C175.101 8.19 175.16 8.21567 175.204 8.267C175.255 8.311 175.281 8.36967 175.281 8.443V10.28H176.645C176.726 10.28 176.788 10.3057 176.832 10.357C176.876 10.401 176.898 10.4597 176.898 10.533V10.907C176.898 10.9803 176.876 11.0427 176.832 11.094C176.788 11.138 176.726 11.16 176.645 11.16H175.281V13.987C175.281 14.3317 175.34 14.603 175.457 14.801C175.574 14.999 175.783 15.098 176.084 15.098H176.755C176.828 15.098 176.887 15.1237 176.931 15.175C176.982 15.219 177.008 15.2777 177.008 15.351V15.747C177.008 15.8203 176.982 15.8827 176.931 15.934C176.887 15.978 176.828 16 176.755 16H175.996ZM182.753 16C182.342 16 182.009 15.923 181.752 15.769C181.495 15.6077 181.308 15.384 181.191 15.098C181.074 14.8047 181.015 14.46 181.015 14.064V11.16H180.157C180.084 11.16 180.021 11.138 179.97 11.094C179.926 11.0427 179.904 10.9803 179.904 10.907V10.533C179.904 10.4597 179.926 10.401 179.97 10.357C180.021 10.3057 180.084 10.28 180.157 10.28H181.015V8.443C181.015 8.36967 181.037 8.311 181.081 8.267C181.132 8.21567 181.195 8.19 181.268 8.19H181.785C181.858 8.19 181.917 8.21567 181.961 8.267C182.012 8.311 182.038 8.36967 182.038 8.443V10.28H183.402C183.483 10.28 183.545 10.3057 183.589 10.357C183.633 10.401 183.655 10.4597 183.655 10.533V10.907C183.655 10.9803 183.633 11.0427 183.589 11.094C183.545 11.138 183.483 11.16 183.402 11.16H182.038V13.987C182.038 14.3317 182.097 14.603 182.214 14.801C182.331 14.999 182.54 15.098 182.841 15.098H183.512C183.585 15.098 183.644 15.1237 183.688 15.175C183.739 15.219 183.765 15.2777 183.765 15.351V15.747C183.765 15.8203 183.739 15.8827 183.688 15.934C183.644 15.978 183.585 16 183.512 16H182.753ZM187.16 16.11C186.603 16.11 186.137 16.0037 185.763 15.791C185.389 15.5783 185.103 15.285 184.905 14.911C184.707 14.5297 184.597 14.097 184.575 13.613C184.568 13.4883 184.564 13.3307 184.564 13.14C184.564 12.942 184.568 12.7843 184.575 12.667C184.597 12.1757 184.707 11.743 184.905 11.369C185.11 10.995 185.4 10.7017 185.774 10.489C186.148 10.2763 186.61 10.17 187.16 10.17C187.71 10.17 188.172 10.2763 188.546 10.489C188.92 10.7017 189.206 10.995 189.404 11.369C189.609 11.743 189.723 12.1757 189.745 12.667C189.752 12.7843 189.756 12.942 189.756 13.14C189.756 13.3307 189.752 13.4883 189.745 13.613C189.723 14.097 189.613 14.5297 189.415 14.911C189.217 15.285 188.931 15.5783 188.557 15.791C188.183 16.0037 187.717 16.11 187.16 16.11ZM187.16 15.263C187.615 15.263 187.978 15.12 188.249 14.834C188.52 14.5407 188.667 14.1153 188.689 13.558C188.696 13.448 188.7 13.3087 188.7 13.14C188.7 12.9713 188.696 12.832 188.689 12.722C188.667 12.1647 188.52 11.743 188.249 11.457C187.978 11.1637 187.615 11.017 187.16 11.017C186.705 11.017 186.339 11.1637 186.06 11.457C185.789 11.743 185.646 12.1647 185.631 12.722C185.624 12.832 185.62 12.9713 185.62 13.14C185.62 13.3087 185.624 13.448 185.631 13.558C185.646 14.1153 185.789 14.5407 186.06 14.834C186.339 15.12 186.705 15.263 187.16 15.263ZM113.13 29C113.056 29 112.994 28.978 112.943 28.934C112.899 28.8827 112.877 28.8203 112.877 28.747V21.443C112.877 21.3697 112.899 21.311 112.943 21.267C112.994 21.2157 113.056 21.19 113.13 21.19H113.68C113.76 21.19 113.823 21.2157 113.867 21.267C113.911 21.311 113.933 21.3697 113.933 21.443V24.006C114.131 23.7567 114.373 23.555 114.659 23.401C114.945 23.247 115.308 23.17 115.748 23.17C116.224 23.17 116.628 23.2763 116.958 23.489C117.295 23.6943 117.548 23.984 117.717 24.358C117.893 24.7247 117.981 25.1537 117.981 25.645V28.747C117.981 28.8203 117.959 28.8827 117.915 28.934C117.871 28.978 117.808 29 117.728 29H117.178C117.104 29 117.042 28.978 116.991 28.934C116.947 28.8827 116.925 28.8203 116.925 28.747V25.7C116.925 25.1867 116.8 24.787 116.551 24.501C116.301 24.2077 115.935 24.061 115.451 24.061C114.996 24.061 114.629 24.2077 114.351 24.501C114.072 24.787 113.933 25.1867 113.933 25.7V28.747C113.933 28.8203 113.911 28.8827 113.867 28.934C113.823 28.978 113.76 29 113.68 29H113.13ZM119.822 29C119.748 29 119.686 28.978 119.635 28.934C119.591 28.8827 119.569 28.8203 119.569 28.747V23.533C119.569 23.4597 119.591 23.401 119.635 23.357C119.686 23.3057 119.748 23.28 119.822 23.28H120.35C120.423 23.28 120.482 23.3057 120.526 23.357C120.577 23.401 120.603 23.4597 120.603 23.533V28.747C120.603 28.8203 120.577 28.8827 120.526 28.934C120.482 28.978 120.423 29 120.35 29H119.822ZM119.734 22.213C119.66 22.213 119.598 22.191 119.547 22.147C119.503 22.0957 119.481 22.0333 119.481 21.96V21.366C119.481 21.2927 119.503 21.2303 119.547 21.179C119.598 21.1277 119.66 21.102 119.734 21.102H120.427C120.5 21.102 120.562 21.1277 120.614 21.179C120.665 21.2303 120.691 21.2927 120.691 21.366V21.96C120.691 22.0333 120.665 22.0957 120.614 22.147C120.562 22.191 120.5 22.213 120.427 22.213H119.734ZM124.576 31.42C124.077 31.42 123.667 31.354 123.344 31.222C123.029 31.09 122.779 30.9287 122.596 30.738C122.42 30.5547 122.292 30.3677 122.211 30.177C122.138 29.9937 122.097 29.847 122.09 29.737C122.083 29.6637 122.105 29.6013 122.156 29.55C122.215 29.4987 122.277 29.473 122.343 29.473H122.871C122.937 29.473 122.992 29.4877 123.036 29.517C123.08 29.5463 123.117 29.6087 123.146 29.704C123.19 29.814 123.256 29.935 123.344 30.067C123.432 30.2063 123.568 30.3237 123.751 30.419C123.934 30.5217 124.191 30.573 124.521 30.573C124.866 30.573 125.155 30.5253 125.39 30.43C125.625 30.3347 125.801 30.1733 125.918 29.946C126.043 29.7187 126.105 29.4033 126.105 29V28.252C125.929 28.4793 125.698 28.67 125.412 28.824C125.126 28.9707 124.767 29.044 124.334 29.044C123.923 29.044 123.571 28.9743 123.278 28.835C122.985 28.6883 122.743 28.494 122.552 28.252C122.369 28.0027 122.229 27.7203 122.134 27.405C122.046 27.0897 121.995 26.7597 121.98 26.415C121.973 26.2097 121.973 26.008 121.98 25.81C121.995 25.4653 122.046 25.1353 122.134 24.82C122.229 24.5047 122.369 24.2223 122.552 23.973C122.743 23.7237 122.985 23.5293 123.278 23.39C123.571 23.2433 123.923 23.17 124.334 23.17C124.774 23.17 125.137 23.2507 125.423 23.412C125.716 23.5733 125.955 23.775 126.138 24.017V23.544C126.138 23.4707 126.16 23.4083 126.204 23.357C126.255 23.3057 126.318 23.28 126.391 23.28H126.897C126.97 23.28 127.033 23.3057 127.084 23.357C127.135 23.4083 127.161 23.4707 127.161 23.544V28.879C127.161 29.3703 127.077 29.8067 126.908 30.188C126.747 30.5693 126.475 30.87 126.094 31.09C125.72 31.31 125.214 31.42 124.576 31.42ZM124.554 28.164C124.921 28.164 125.214 28.0797 125.434 27.911C125.661 27.7423 125.826 27.5297 125.929 27.273C126.039 27.0163 126.098 26.756 126.105 26.492C126.112 26.3893 126.116 26.2647 126.116 26.118C126.116 25.964 126.112 25.8357 126.105 25.733C126.098 25.469 126.039 25.2087 125.929 24.952C125.826 24.6953 125.661 24.4827 125.434 24.314C125.214 24.1453 124.921 24.061 124.554 24.061C124.187 24.061 123.894 24.1453 123.674 24.314C123.454 24.4753 123.296 24.6917 123.201 24.963C123.106 25.227 123.051 25.513 123.036 25.821C123.029 26.0117 123.029 26.206 123.036 26.404C123.051 26.712 123.106 27.0017 123.201 27.273C123.296 27.537 123.454 27.7533 123.674 27.922C123.894 28.0833 124.187 28.164 124.554 28.164ZM129.06 29C128.987 29 128.925 28.978 128.873 28.934C128.829 28.8827 128.807 28.8203 128.807 28.747V21.443C128.807 21.3697 128.829 21.311 128.873 21.267C128.925 21.2157 128.987 21.19 129.06 21.19H129.61C129.691 21.19 129.753 21.2157 129.797 21.267C129.841 21.311 129.863 21.3697 129.863 21.443V24.006C130.061 23.7567 130.303 23.555 130.589 23.401C130.875 23.247 131.238 23.17 131.678 23.17C132.155 23.17 132.558 23.2763 132.888 23.489C133.226 23.6943 133.479 23.984 133.647 24.358C133.823 24.7247 133.911 25.1537 133.911 25.645V28.747C133.911 28.8203 133.889 28.8827 133.845 28.934C133.801 28.978 133.739 29 133.658 29H133.108C133.035 29 132.973 28.978 132.921 28.934C132.877 28.8827 132.855 28.8203 132.855 28.747V25.7C132.855 25.1867 132.731 24.787 132.481 24.501C132.232 24.2077 131.865 24.061 131.381 24.061C130.927 24.061 130.56 24.2077 130.281 24.501C130.003 24.787 129.863 25.1867 129.863 25.7V28.747C129.863 28.8203 129.841 28.8827 129.797 28.934C129.753 28.978 129.691 29 129.61 29H129.06Z" fill="#222222"/>
<g clip-path="url(#clip2_122_1528)">
<path fill-rule="evenodd" clip-rule="evenodd" d="M263.759 14H267.759V10H263.759V14ZM263.759 19H267.759V15H263.759V19ZM263.759 9H267.759V5H263.759V9ZM268.759 14H280.759V10H268.759V14ZM268.759 19H280.759V15H268.759V19ZM268.759 5V9H280.759V5H268.759Z" fill="#222222"/>
</g>
<defs>
<clipPath id="clip0_122_1528">
<rect width="19.2414" height="24" fill="white"/>
</clipPath>
<clipPath id="clip1_122_1528">
<rect width="19.2414" height="24" fill="white" transform="translate(88)"/>
</clipPath>
<clipPath id="clip2_122_1528">
<rect width="19.2414" height="24" fill="white" transform="translate(259.759)"/>
</clipPath>
</defs>
</svg>
