<svg width="76" height="46" viewBox="0 0 76 46" fill="none" xmlns="http://www.w3.org/2000/svg">
<path fill-rule="evenodd" clip-rule="evenodd" d="M5.59756 0.27002H69.7102C71.166 0.273893 72.5611 0.853919 73.5905 1.88332C74.6199 2.91272 75.1999 4.30778 75.2038 5.76357V30.0761L59.5498 45.73H5.59756C4.14177 45.7262 2.74671 45.1461 1.71731 44.1167C0.687906 43.0873 0.107877 41.6923 0.104004 40.2365V5.76357C0.107877 4.30778 0.687906 2.91272 1.71731 1.88332C2.74671 0.853919 4.14177 0.273893 5.59756 0.27002Z" fill="#FFF200"/>
<path d="M32.7621 13.5024L29.5188 30.6239H25.6346L25.8401 29.3814L25.8009 29.3276C25.3507 29.844 24.8082 30.2719 24.2013 30.5897C23.6626 30.8209 23.0801 30.9327 22.494 30.9175C21.9412 30.9445 21.3906 30.8302 20.8942 30.5854C20.3978 30.3406 19.9719 29.9734 19.6568 29.5184C18.9521 28.3965 18.6105 27.0846 18.6784 25.7614C18.6282 23.824 19.1377 21.9133 20.146 20.2581C21.1243 18.6927 22.3685 17.9116 23.8784 17.9149C24.5824 17.8877 25.2801 18.0562 25.8941 18.4016C26.5081 18.747 27.0143 19.2559 27.3565 19.8716L28.5502 13.5122L32.7621 13.5024ZM24.1964 27.816C24.9693 27.816 25.5645 27.3268 25.9819 26.3485C26.3912 25.3931 26.6025 24.3646 26.6032 23.3253C26.6485 22.7403 26.4741 22.1595 26.114 21.6963C25.979 21.5298 25.8092 21.395 25.6165 21.3012C25.4239 21.2074 25.213 21.1569 24.9987 21.1533C24.3872 21.1533 23.8638 21.5936 23.4235 22.479C22.9585 23.4799 22.7324 24.5751 22.7631 25.6783C22.7249 26.2398 22.8635 26.7991 23.1593 27.2779C23.2722 27.4494 23.4263 27.5899 23.6074 27.6864C23.7886 27.783 23.9911 27.8326 24.1964 27.8307V27.816Z" fill="#231F20"/>
<path d="M44.7764 27.4638C44.2732 28.5768 43.4375 29.5065 42.3842 30.125C41.2373 30.7015 39.964 30.9807 38.6811 30.9371C36.5254 30.9371 34.9926 30.3859 34.0828 29.2836C33.1593 28.1395 32.6752 26.7029 32.7179 25.2332C32.7103 24.1567 32.9269 23.0905 33.3539 22.1024C33.7499 21.1728 34.3404 20.3388 35.0856 19.6564C35.6994 19.0615 36.4333 18.6045 37.238 18.3161C38.0432 18.0713 38.8817 17.9541 39.7231 17.9687C41.7581 17.9687 43.2256 18.4726 44.1257 19.4803C45.0199 20.505 45.495 21.829 45.4563 23.1884C45.4194 24.0237 45.3262 24.8555 45.1775 25.6783H36.8613C36.9787 27.3383 37.631 28.1683 38.8181 28.1683C39.2145 28.1732 39.6051 28.0719 39.9492 27.8749C40.2933 27.6779 40.5784 27.3924 40.7748 27.048L44.8204 27.4785L44.7764 27.4638ZM41.2738 23.3596C41.3296 23.1258 41.3543 22.8856 41.3472 22.6454C41.3675 22.3857 41.3346 22.1247 41.2505 21.8782C41.1664 21.6318 41.0328 21.4051 40.858 21.2121C40.6959 21.0519 40.5032 20.9261 40.2914 20.8421C40.0796 20.758 39.853 20.7175 39.6252 20.7229C39.3564 20.7288 39.0917 20.7901 38.8476 20.9028C38.6036 21.0156 38.3853 21.1775 38.2066 21.3784C37.7167 21.935 37.3796 22.6092 37.2282 23.3351L41.2738 23.3596Z" fill="#231F20"/>
<path d="M47.7751 21.6426C47.9766 20.5439 48.5976 19.5667 49.5069 18.9178C50.4135 18.2656 51.8126 17.9395 53.7041 17.9395C55.85 17.9395 57.3012 18.246 58.0578 18.8591C58.4373 19.1883 58.7357 19.6005 58.93 20.0637C59.1243 20.5269 59.2092 21.0287 59.1781 21.5301C59.1056 22.8263 58.9157 24.1132 58.6106 25.3751C58.3356 26.5353 58.1605 27.7169 58.0872 28.907C58.0902 29.4892 58.1792 30.0678 58.3513 30.624H54.2862C54.1907 30.1588 54.1416 29.6852 54.1394 29.2103C53.6801 29.7355 53.1159 30.1587 52.4832 30.4527C51.8505 30.7467 51.1633 30.9051 50.4657 30.9175C49.0862 30.9175 48.0947 30.5507 47.4914 29.8169C46.8924 29.1039 46.5695 28.1994 46.5815 27.2682C46.5177 26.3567 46.8087 25.4558 47.3936 24.7538C47.9316 24.1805 48.6224 23.7731 49.3846 23.5798C50.4491 23.3269 51.5293 23.1455 52.6181 23.0368C53.4447 22.9646 54.2633 22.8189 55.064 22.6014C55.1315 22.3255 55.1724 22.0437 55.1863 21.76C55.1884 21.6104 55.1511 21.463 55.0781 21.3324C55.0051 21.2019 54.899 21.0929 54.7705 21.0164C54.4384 20.8141 54.0535 20.7153 53.6649 20.7327C53.2577 20.7155 52.853 20.8049 52.4909 20.992C52.118 21.2678 51.8422 21.6549 51.7033 22.0975L47.7898 21.6083L47.7751 21.6426ZM54.5699 25.0669C52.6132 25.4387 51.5076 25.7615 51.1456 26.0453C50.9959 26.1612 50.8742 26.3093 50.7895 26.4787C50.7049 26.6481 50.6594 26.8343 50.6564 27.0236C50.6483 27.1956 50.6758 27.3674 50.7372 27.5282C50.7987 27.689 50.8928 27.8353 51.0135 27.958C51.1376 28.0747 51.2837 28.1656 51.4433 28.2252C51.6029 28.2849 51.7728 28.3121 51.943 28.3053C52.5414 28.2762 53.1048 28.0147 53.5133 27.5764C54.0318 27.0872 54.3791 26.2458 54.5601 25.0522L54.5699 25.0669Z" fill="#231F20"/>
<path fill-rule="evenodd" clip-rule="evenodd" d="M16.2176 27.4346L15.4056 31.7296H11.2084L12.0204 27.4346H16.2176Z" fill="#2E3192"/>
<path fill-rule="evenodd" clip-rule="evenodd" d="M14.6864 13.3069H18.8836L16.7508 24.6071H12.5536L14.6864 13.3069Z" fill="#2E3192"/>
<path d="M59.726 16.4817H61.5359V16.9562H60.9294V18.4091H60.3325V16.9562H59.726V16.4817Z" fill="#231F20"/>
<path d="M61.7999 16.4817H62.5826L62.8859 17.6509L63.1843 16.4817H63.967V18.4091H63.4827V16.9366L63.1012 18.4091H62.6609L62.2842 16.9366V18.4091H61.7999V16.4817Z" fill="#231F20"/>
</svg>
