<svg width="85" height="46" viewBox="0 0 85 46" fill="none" xmlns="http://www.w3.org/2000/svg">
<path d="M21.8016 0.702637C9.86963 0.702637 0.203735 10.6763 0.203735 22.9999C0.203735 35.3096 9.86963 45.2972 21.8016 45.2972C33.7336 45.2972 43.3995 35.3236 43.3995 22.9999C43.3995 10.6763 33.7336 0.702637 21.8016 0.702637Z" fill="#182987"/>
<path d="M15.311 13.9355H14.5696C13.1708 13.9355 12.4015 14.7469 12.4015 16.3835V24.2449C12.4015 26.2732 11.744 26.9726 10.1913 26.9726C8.97434 26.9726 7.98117 26.4271 7.18384 25.4199C7.1139 25.322 5.50525 26.1053 5.50525 28.0497C5.50525 30.1479 7.40765 31.4349 10.9467 31.4349C15.2551 31.4349 17.5072 29.1967 17.5072 24.3148V16.3835C17.5352 14.7469 16.7658 13.9355 15.311 13.9355ZM21.9834 17.8942H21.4798C20.2349 17.8942 19.2837 18.4957 19.2837 20.3422V28.7491C19.2837 30.6096 20.2069 31.1971 21.5218 31.1971H22.0254C23.2703 31.1971 24.1656 30.5676 24.1656 28.7491V20.3422C24.1656 18.4538 23.2983 17.8942 21.9834 17.8942ZM21.7037 11.8093C20.123 11.8093 19.1298 12.7326 19.1298 14.1733C19.1298 15.6421 20.151 16.5653 21.7736 16.5653C23.3543 16.5653 24.3474 15.6421 24.3474 14.1733C24.3474 12.6906 23.3263 11.8093 21.7037 11.8093ZM32.4606 17.7683C28.2781 17.7683 25.5085 20.496 25.5085 24.5666C25.5085 28.7491 28.1802 31.4209 32.3767 31.4209C36.5452 31.4209 39.3009 28.7351 39.3009 24.5946C39.3009 20.496 36.5732 17.7683 32.4606 17.7683ZM32.4047 27.5601C30.782 27.5601 29.663 26.3291 29.663 24.5666C29.663 22.8321 30.81 21.6011 32.4047 21.6011C34.0133 21.6011 35.1464 22.8321 35.1464 24.5946C35.1464 26.3012 33.9854 27.5601 32.4047 27.5601Z" fill="white"/>
<path d="M51.065 14.8726C51.4987 14.8726 51.8903 14.9426 52.268 15.0825C52.6317 15.2223 52.9534 15.4322 53.2332 15.7119C53.499 15.9917 53.7088 16.3414 53.8627 16.775C54.0166 17.1947 54.0865 17.6983 54.0865 18.2578C54.0865 18.7614 54.0305 19.223 53.9047 19.6426C53.7788 20.0623 53.5969 20.426 53.3451 20.7337C53.0933 21.0415 52.7856 21.2793 52.4079 21.4611C52.0302 21.629 51.5966 21.7269 51.079 21.7269H48.2114V14.8586M50.9671 20.4679L51.5826 20.356L52.1142 20.0063C52.268 19.8385 52.3939 19.6286 52.4918 19.3629C52.5898 19.0971 52.6317 18.7754 52.6317 18.3977C52.6317 18.048 52.6037 17.7402 52.5338 17.4605C52.4639 17.1807 52.3659 16.9429 52.2121 16.7471C52.0582 16.5512 51.8624 16.3974 51.6246 16.2854C51.3728 16.1735 51.079 16.1316 50.7153 16.1316H49.6802V20.4539H50.9671V20.4679Z" fill="#182987"/>
<path d="M56.6463 14.8728H55.1915V21.741H56.6463V14.8728Z" fill="#182987"/>
<path d="M61.9759 21.685C61.6542 21.8249 61.3464 21.8948 61.0107 21.8948C60.5072 21.8948 60.0455 21.7969 59.6399 21.615C59.2342 21.4332 58.8845 21.1814 58.6187 20.8597C58.339 20.5379 58.1291 20.1603 57.9753 19.7266C57.8214 19.293 57.7515 18.8314 57.7515 18.3278C57.7515 17.8102 57.8214 17.3346 57.9753 16.901C58.1291 16.4674 58.339 16.0757 58.6187 15.754C58.8985 15.4322 59.2342 15.1664 59.6399 14.9846C60.0455 14.8028 60.5072 14.7048 61.0107 14.7048C61.3464 14.7048 61.6822 14.7608 62.0039 14.8587C62.3256 14.9706 62.6054 15.1245 62.8712 15.3203C63.1369 15.5301 63.3468 15.7819 63.5146 16.0757C63.6825 16.3834 63.7804 16.7191 63.8224 17.1108H62.4235C62.3396 16.7331 62.1718 16.4394 61.92 16.2435C61.6682 16.0477 61.3744 15.9498 61.0107 15.9498C60.675 15.9498 60.4092 16.0197 60.1714 16.1456C59.9336 16.2715 59.7518 16.4534 59.6119 16.6772C59.472 16.901 59.3601 17.1528 59.3042 17.4325C59.2342 17.7123 59.2062 18.0061 59.2062 18.3138C59.2062 18.6076 59.2342 18.8873 59.3042 19.1531C59.3741 19.4329 59.472 19.6707 59.6119 19.8945C59.7518 20.1183 59.9336 20.2861 60.1714 20.412C60.3952 20.5379 60.675 20.6079 61.0107 20.6079C61.5003 20.6079 61.864 20.482 62.1298 20.2302C62.3956 19.9784 62.5494 19.6147 62.5914 19.1251H61.1226V18.0061H63.9203V21.713H62.9831L62.8292 20.9296C62.5774 21.3073 62.2837 21.5451 61.9759 21.685Z" fill="#182987"/>
<path d="M66.662 14.8728H65.1932V21.741H66.662V14.8728Z" fill="#182987"/>
<path d="M67.5153 16.1457V14.8728H72.9567V16.1457H70.9704V21.741H69.5156V16.1457" fill="#182987"/>
<path d="M76.2718 14.8728L78.7617 21.741H77.237L76.7334 20.2163H74.2435L73.726 21.741H72.2572L74.7751 14.8728M76.3558 19.0833L75.5165 16.5654H75.5025L74.6352 19.0833H76.3558Z" fill="#182987"/>
<path d="M80.8881 14.8728V20.4681H84.1334V21.741H79.4333V14.8728" fill="#182987"/>
<path d="M49.6663 24.4128V30.0081H52.9116V31.2671H48.1975V24.4128" fill="#182987"/>
<path d="M55.2894 24.4128H53.8207V31.2811H55.2894V24.4128Z" fill="#182987"/>
<path d="M61.3325 24.4128V25.6718H58.1152V27.2664H60.8988V28.4415H58.1152V31.2671H56.6604V24.4128" fill="#182987"/>
<path d="M67.2495 24.4128V25.6718H63.7384V27.1406H66.9557V28.3156H63.7384V30.0081H67.3194V31.2671H62.2697V24.4128" fill="#182987"/>
</svg>
