<svg width="212" height="87" viewBox="0 0 212 87" fill="none" xmlns="http://www.w3.org/2000/svg">
<path d="M0.333333 3C0.333333 4.47276 1.52724 5.66667 3 5.66667C4.47276 5.66667 5.66667 4.47276 5.66667 3C5.66667 1.52724 4.47276 0.333333 3 0.333333C1.52724 0.333333 0.333333 1.52724 0.333333 3ZM206.333 49C206.333 50.4728 207.527 51.6667 209 51.6667C210.473 51.6667 211.667 50.4728 211.667 49C211.667 47.5272 210.473 46.3333 209 46.3333C207.527 46.3333 206.333 47.5272 206.333 49ZM2.5 3V11.625H3.5V3H2.5ZM2.5 28.875V46.125H3.5V28.875H2.5ZM2.5 63.375V72H3.5V63.375H2.5ZM2.5 72C2.5 73.9652 2.89121 75.8402 3.60046 77.5506L4.52419 77.1675C3.8644 75.5764 3.5 73.8314 3.5 72H2.5ZM11.4494 85.3995C13.1598 86.1088 15.0348 86.5 17 86.5V85.5C15.1686 85.5 13.4236 85.1356 11.8325 84.4758L11.4494 85.3995ZM17 86.5H24.4167V85.5H17V86.5ZM39.25 86.5H54.0833V85.5H39.25V86.5ZM68.9167 86.5H83.75V85.5H68.9167V86.5ZM98.5833 86.5H113.417V85.5H98.5833V86.5ZM128.25 86.5H143.083V85.5H128.25V86.5ZM157.917 86.5H172.75V85.5H157.917V86.5ZM187.583 86.5H195V85.5H187.583V86.5ZM195 86.5C196.965 86.5 198.84 86.1088 200.551 85.3995L200.168 84.4758C198.576 85.1356 196.831 85.5 195 85.5V86.5ZM208.4 77.5506C209.109 75.8402 209.5 73.9652 209.5 72H208.5C208.5 73.8314 208.136 75.5764 207.476 77.1675L208.4 77.5506ZM209.5 72V66.25H208.5V72H209.5ZM209.5 54.75V49H208.5V54.75H209.5Z" fill="#6C54E6"/>
</svg>
