<svg width="124" height="48" viewBox="0 0 124 48" fill="none" xmlns="http://www.w3.org/2000/svg">
<mask id="mask0_0_3852" style="mask-type:luminance" maskUnits="userSpaceOnUse" x="0" y="0" width="124" height="48">
<path d="M0.866577 47.6487H123.76V0.351383H0.866577V47.6487Z" fill="white"/>
</mask>
<g mask="url(#mask0_0_3852)">
<path d="M82.6581 10.7005H85.2411V22.9985C85.2411 24.0877 84.2097 24.2585 83.8666 24.2585C83.3019 24.2585 82.9616 23.8717 82.7682 23.6543L75.668 14.6184V24.0729H73.0934V11.5737C73.0934 11.0245 73.5587 10.351 74.5124 10.351C75.1936 10.351 75.4887 10.6482 75.6764 10.8529L82.6581 19.6312V10.7005Z" fill="#29559B"/>
<path d="M16.8839 13.0836V16.4559H19.9851C21.4944 16.4559 22.2328 16.1205 22.2328 14.7595C22.2328 13.3808 21.4944 13.0836 19.9851 13.0836H16.8839ZM20.5894 10.7004C23.4392 10.7004 24.7974 11.9097 24.7974 14.7235C24.7974 16.7919 23.927 18.1134 22.3669 18.4854L25.3671 24.075H22.518L19.7959 18.6781H16.8839V24.075H14.3525V10.7004H20.5894Z" fill="#29559B"/>
<path d="M50.6712 10.7004H53.3184V24.0742H50.6712V10.7004Z" fill="#29559B"/>
<path d="M89.3812 17.7383C89.3812 20.7392 90.1909 21.7444 92.2861 21.7444H97.3448V24.0747H92.1703C90.7351 24.0747 89.6296 23.9427 88.4754 22.8986C87.2535 21.8009 86.6584 20.0481 86.6584 17.6246C86.6584 12.8914 88.4253 10.6924 92.2352 10.6924H97.3448V12.9853H92.2861C90.1909 12.9853 89.3812 14.4211 89.3812 17.7383Z" fill="#29559B"/>
<path d="M63.4072 11.8402C63.2519 11.5205 63.1975 11.5085 63.0965 11.5085C62.9942 11.5085 62.9363 11.5205 62.7824 11.8402L56.8258 24.0747H54.0861L60.4768 10.9861C61.1588 9.59114 61.9586 8.98899 63.0965 8.98899C64.2317 8.98899 65.0287 9.59397 65.7092 10.9861L72.0993 24.0747H69.3701L63.4072 11.8402Z" fill="#29559B"/>
<path d="M63.0891 15.6351L59.0519 24.0745H61.3193H64.8659H67.132L63.0891 15.6351Z" fill="#D72729"/>
<path d="M49.379 21.7452L42.6578 21.7445H41.8863V20.9722V10.7002H39.3611V21.8758C39.3611 23.0963 40.3685 24.0762 41.5721 24.0762H48.0469L49.379 21.7452Z" fill="#29559B"/>
<path d="M28.3204 16.4556C28.6543 14.2679 29.8028 12.9507 31.9341 12.9507C34.5439 12.9507 35.2915 15.0459 35.2978 16.4556H28.3204ZM31.8155 10.5166C27.6484 10.523 25.544 13.5359 25.5334 17.3945C25.5433 21.2496 28.0451 24.1912 32.2171 24.1982C34.8898 24.1982 36.757 23.0144 37.5878 22.2372L36.3793 20.257C35.8273 20.7837 34.8347 21.7917 32.2863 21.7917C30.4149 21.7917 28.3296 20.4392 28.3296 18.8092L28.3239 18.6779H37.7954L37.7989 18.663C38.5345 13.334 36.1393 10.5166 31.8155 10.5166Z" fill="#29559B"/>
<path d="M100.596 16.4556C100.931 14.2679 102.078 12.9507 104.209 12.9507C106.82 12.9507 107.567 15.0459 107.573 16.4556H100.596ZM104.092 10.5166C99.9233 10.523 97.8204 13.5359 97.8105 17.3945C97.8204 21.2496 100.321 24.1912 104.493 24.1982C107.167 24.1982 109.033 23.0144 109.864 22.2372L108.654 20.257C108.102 20.7837 107.11 21.7917 104.562 21.7917C102.69 21.7917 100.605 20.4392 100.605 18.8092L100.599 18.6779H110.07L110.073 18.663C110.811 13.334 108.416 10.5166 104.092 10.5166Z" fill="#29559B"/>
</g>
<path d="M14.5481 28.4467H16.5775V42.1387H14.5481V28.4467Z" fill="#D72729"/>
<path d="M23.9755 42.1387V35.3303C23.9755 34.1395 23.2934 33.4025 21.9461 33.4025C21.2273 33.4025 20.5631 33.5342 20.169 33.7046V42.1387H18.2111V32.4563C19.1811 32.0401 20.4201 31.738 21.9283 31.738C24.6408 31.738 25.9513 32.9853 25.9513 35.1411V42.1387H23.9755Z" fill="#D72729"/>
<path d="M31.8576 28.9209C30.7436 28.9209 29.9365 29.4122 29.9365 30.6794V31.9466H31.9469V33.4981H29.9365V42.1392H28.0143V33.4981H26.7395V31.9466H28.0143V30.6794C28.0143 28.3343 29.5224 27.2553 31.5161 27.2553C31.7136 27.2553 31.9827 27.2752 32.1267 27.2951V28.9208L31.8576 28.9209Z" fill="#D72729"/>
<path d="M37.3526 33.5344C37.0657 33.4592 36.7241 33.4215 36.3647 33.4215C35.8077 33.4215 35.215 33.5156 34.8387 33.686V42.1389H32.8808V32.4565C33.814 32.0404 35.1971 31.7372 36.6337 31.7372C37.0657 31.7372 37.443 31.7571 37.7288 31.8146L37.3526 33.5344Z" fill="#D72729"/>
<path d="M43.6159 37.0143C41.6401 37.1272 39.6653 37.2965 39.6653 39.1137C39.6653 40.1916 40.4546 40.8534 41.9459 40.8534C42.5744 40.8534 43.3111 40.7405 43.6159 40.5889V37.0143ZM41.9995 42.3474C39.2155 42.3474 37.8157 41.1555 37.8157 39.1513C37.8157 36.3137 40.689 35.8036 43.6159 35.6342V34.9901C43.6159 33.7042 42.8077 33.2504 41.5686 33.2504C40.6532 33.2504 39.5392 33.5537 38.8929 33.8746L38.3905 32.4558C39.1619 32.0962 40.4725 31.7376 41.7662 31.7376C44.0825 31.7376 45.4834 32.6838 45.4834 35.1993V41.6292C44.7835 42.0254 43.3647 42.3474 41.9995 42.3474Z" fill="#D72729"/>
<path d="M49.4517 42.3474C48.3208 42.3474 47.1354 42.0254 46.4344 41.6292L47.0996 40.04C47.6009 40.362 48.6624 40.7018 49.3981 40.7018C50.4574 40.7018 51.1573 40.1528 51.1573 39.3029C51.1573 38.3755 50.4217 38.0158 49.4338 37.6385C48.1411 37.1272 46.6856 36.5041 46.6856 34.594C46.6856 32.9096 47.9257 31.7376 50.0812 31.7376C51.2477 31.7376 52.2177 32.0408 52.8998 32.4558L52.2892 33.8934C51.8583 33.6112 50.9955 33.2892 50.2956 33.2892C49.2719 33.2892 48.6971 33.8569 48.6971 34.594C48.6971 35.5214 49.4159 35.8423 50.3681 36.2197C51.7143 36.7487 53.2056 37.3363 53.2056 39.3217C53.2056 41.1555 51.8762 42.3474 49.4517 42.3474Z" fill="#D72729"/>
<path d="M57.5494 42.2715C55.8416 42.2715 54.8905 41.2688 54.8905 39.2834V33.4977H53.5789V31.9461H54.8905V29.5811L56.8127 28.958V31.9461H58.7695V33.4977H56.8127V39.1694C56.8127 40.0968 57.3876 40.4565 58.1053 40.4565C58.3387 40.4565 58.6077 40.4001 58.7695 40.3237V42.0446C58.5362 42.1586 58.0507 42.2715 57.5494 42.2715Z" fill="#D72729"/>
<path d="M64.2112 33.5344C63.9222 33.4592 63.5817 33.4215 63.2223 33.4215C62.6653 33.4215 62.0736 33.5156 61.6963 33.686V42.1389H59.7384V32.4565C60.6727 32.0404 62.0547 31.7372 63.4913 31.7372C63.9222 31.7372 64.3006 31.7571 64.5875 31.8146L64.2112 33.5344Z" fill="#D72729"/>
<path d="M69.2749 42.3474C66.7242 42.3474 65.3601 41.2308 65.3601 38.6798V31.9468H67.317V38.7164C67.317 40.0212 67.9822 40.6453 69.2749 40.6453C70.0295 40.6453 70.6748 40.5136 70.9984 40.362V31.9468H72.9553V41.6292C72.166 42.0453 70.7473 42.3474 69.2749 42.3474Z" fill="#D72729"/>
<path d="M78.3605 42.3474C76.2061 42.3474 74.1042 40.7217 74.1042 37.032C74.1042 33.3456 76.2061 31.7376 78.3605 31.7376C79.4199 31.7376 80.2459 32.022 80.8387 32.4381L80.1934 33.9333C79.7972 33.6278 79.2044 33.4397 78.6117 33.4397C77.319 33.4397 76.1336 34.5176 76.1336 37.0143C76.1336 39.511 77.3548 40.6066 78.6117 40.6066C79.2044 40.6066 79.7972 40.4185 80.1934 40.1163L80.8387 41.648C80.2281 42.0818 79.4199 42.3474 78.3605 42.3474Z" fill="#D72729"/>
<path d="M85.1124 42.2715C83.4056 42.2715 82.4545 41.2688 82.4545 39.2834V33.4977H81.1429V31.9461H82.4545V29.5811L84.3757 28.958V31.9461H86.3336V33.4977H84.3757V39.1694C84.3757 40.0968 84.9505 40.4565 85.6704 40.4565C85.9027 40.4565 86.1717 40.4001 86.3336 40.3237V42.0446C86.1003 42.1586 85.6158 42.2715 85.1124 42.2715Z" fill="#D72729"/>
<path d="M91.2187 42.3474C88.6691 42.3474 87.3039 41.2308 87.3039 38.6798V31.9468H89.2618V38.7164C89.2618 40.0212 89.926 40.6453 91.2187 40.6453C91.9733 40.6453 92.6185 40.5136 92.9422 40.362V31.9468H94.9001V41.6292C94.1098 42.0453 92.6911 42.3474 91.2187 42.3474Z" fill="#D72729"/>
<path d="M100.88 33.5344C100.592 33.4592 100.251 33.4215 99.8909 33.4215C99.3349 33.4215 98.7422 33.5156 98.3659 33.686V42.1389H96.408V32.4565C97.3413 32.0404 98.7243 31.7372 100.162 31.7372C100.592 31.7372 100.969 31.7571 101.256 31.8146L100.88 33.5344Z" fill="#D72729"/>
<path d="M105.637 33.2509C104.129 33.2509 103.141 34.4616 103.106 36.5787L107.793 35.8992C107.774 34.1219 106.93 33.2509 105.637 33.2509ZM109.66 36.996L103.231 37.9411C103.428 39.776 104.559 40.7023 106.194 40.7023C107.163 40.7023 108.206 40.4566 108.87 40.0781L109.445 41.6286C108.69 42.0447 107.398 42.3479 106.068 42.3479C103.016 42.3479 101.31 40.285 101.31 37.0325C101.31 33.9138 102.962 31.7381 105.674 31.7381C108.187 31.7381 109.679 33.4789 109.679 36.2202C109.679 36.4659 109.679 36.7315 109.66 36.996Z" fill="#D72729"/>
</svg>
