<svg width="23" height="18" viewBox="0 0 23 18" fill="none" xmlns="http://www.w3.org/2000/svg">
<path d="M20.9589 0.305097L6.77264 15.0044L2.04119 9.27295C1.93027 9.16112 1.79831 9.07236 1.65292 9.01178C1.50753 8.95121 1.35158 8.92002 1.19407 8.92002C1.03656 8.92002 0.880617 8.95121 0.735223 9.01178C0.58983 9.07236 0.457868 9.16112 0.346952 9.27295C0.124731 9.4965 0 9.7989 0 10.1141C0 10.4293 0.124731 10.7317 0.346952 10.9553L5.93746 17.5458C6.04894 17.6563 6.18116 17.7438 6.32653 17.8032C6.47189 17.8626 6.62755 17.8927 6.78457 17.8918C6.94243 17.8911 7.09859 17.8591 7.24401 17.7977C7.38942 17.7363 7.52119 17.6466 7.63169 17.5338L22.6651 2.0232C22.885 1.79536 23.0054 1.4895 22.9998 1.17288C22.9942 0.856271 22.8631 0.554848 22.6352 0.334924C22.5224 0.226029 22.3893 0.140421 22.2434 0.0829867C22.0975 0.0255522 21.9417 -0.00258348 21.7849 0.00018632C21.4683 0.00578018 21.1669 0.136919 20.947 0.364753L20.9589 0.305097Z" fill="#1E1E1E"/>
</svg>
