<svg width="177" height="44" viewBox="0 0 177 44" fill="none" xmlns="http://www.w3.org/2000/svg">
<path d="M43.9989 22C43.9989 33.941 34.3222 43.6217 22.3814 43.6217C10.4404 43.6217 0.759766 33.941 0.759766 22C0.759766 10.0591 10.4404 0.378418 22.3814 0.378418C34.3223 0.378418 43.9989 10.0591 43.9989 22Z" fill="#EE3023"/>
<path d="M22.5522 34.0563C16.6136 34.0764 10.4324 29.0074 10.4048 20.864C10.3849 15.4814 13.2926 10.2975 17.0028 7.22288C20.6255 4.22772 25.587 2.30116 30.0837 2.28516C30.6637 2.28516 31.2714 2.33285 31.6409 2.45993C27.7083 3.27427 24.5781 6.93683 24.59 11.0879C24.59 11.2269 24.6018 11.3739 24.6176 11.4414C31.1998 13.0463 34.187 17.0186 34.2069 22.5124C34.2228 28.0102 29.8853 34.0325 22.5522 34.0563Z" fill="white"/>
<path d="M57.9618 30.9537L51.3518 15.1794H55.6699L59.7932 25.6546L63.7894 15.1794H67.9127L61.4974 30.9538L57.9618 30.9537ZM79.4166 22.9851C79.4166 22.3297 79.3412 21.706 79.1862 21.1141C79.0352 20.5223 78.8049 20.0138 78.4991 19.5888C78.1931 19.1597 77.8237 18.8221 77.3867 18.5718C76.9498 18.3177 76.4374 18.1905 75.8495 18.1905C75.2616 18.1905 74.7451 18.3177 74.3121 18.5718C73.8752 18.8221 73.5017 19.1597 73.1999 19.5888C72.8939 20.0138 72.6636 20.5223 72.5127 21.1141C72.3577 21.7061 72.2822 22.3297 72.2822 22.9852C72.2822 23.6644 72.3577 24.2961 72.5126 24.876C72.6636 25.456 72.886 25.9644 73.18 26.4014C73.4739 26.8384 73.8473 27.1839 74.2962 27.4382C74.7411 27.6884 75.2616 27.8155 75.8494 27.8155C76.4374 27.8155 76.9498 27.6884 77.3867 27.4382C77.8237 27.1839 78.1931 26.8384 78.499 26.4014C78.8049 25.9644 79.0353 25.4559 79.1861 24.876C79.3411 24.2961 79.4166 23.6644 79.4166 22.9851ZM83.4089 23.0025C83.4089 24.0312 83.2499 25.0402 82.9361 26.0333C82.6184 27.0264 82.1496 27.9123 81.5259 28.6988C80.9062 29.4853 80.1197 30.117 79.1703 30.5976C78.221 31.0783 77.1126 31.3166 75.8495 31.3166C74.5822 31.3166 73.474 31.0781 72.5285 30.5976C71.5791 30.117 70.7926 29.4853 70.1689 28.6988C69.5492 27.9123 69.0806 27.0264 68.7627 26.0333C68.4489 25.0402 68.29 24.0312 68.29 23.0025C68.29 21.9775 68.4489 20.9766 68.7627 19.9913C69.0806 19.0103 69.5492 18.1323 70.1689 17.3577C70.7926 16.5831 71.5791 15.9634 72.5285 15.4947C73.474 15.026 74.5822 14.7876 75.8495 14.7876C77.1126 14.7876 78.217 15.0261 79.1545 15.4947C80.0919 15.9634 80.8784 16.5831 81.51 17.3577C82.1456 18.1323 82.6184 19.0103 82.9361 19.9913C83.2499 20.9766 83.4089 21.9775 83.4089 23.0025ZM95.6001 18.6513C94.8175 18.3454 94.0905 18.1905 93.4152 18.1905C92.724 18.1905 92.1242 18.3257 91.6277 18.5877C91.1271 18.8497 90.714 19.2034 90.3883 19.6523C90.0625 20.1012 89.8203 20.6057 89.6574 21.1658C89.4934 21.7257 89.4105 22.3063 89.4111 22.8897C89.4111 23.5452 89.4826 24.1729 89.6255 24.7767C89.7646 25.3765 89.9831 25.9049 90.2771 26.3537C90.567 26.8026 90.9365 27.164 91.3814 27.4382C91.8263 27.7082 92.3546 27.8473 92.9624 27.8473C93.463 27.8473 93.9714 27.7083 94.4917 27.4382C95.0122 27.164 95.3816 26.8384 95.6001 26.4689V18.6513ZM95.9258 30.9537L95.7629 29.7461C95.3935 30.1592 94.9048 30.5247 94.2931 30.8385C93.6854 31.1563 92.9664 31.3151 92.1401 31.3151C91.0557 31.3151 90.0943 31.0848 89.2721 30.628C88.4419 30.1711 87.7467 29.5594 87.1826 28.7967C86.6185 28.034 86.1855 27.1481 85.8915 26.1432C85.6016 25.1421 85.4547 24.0935 85.4547 23.001C85.4539 21.9803 85.6066 20.9653 85.9075 19.99C86.2134 19.0088 86.6742 18.131 87.2938 17.3564C87.9174 16.5817 88.6922 15.962 89.6296 15.4933C90.5631 15.0245 91.6634 14.7863 92.9226 14.7863C93.7489 14.7863 94.6427 14.9411 95.6001 15.243V9.1255H99.6558V30.9537H95.9258ZM111.08 23.5571C110.643 23.5801 110.191 23.6209 109.73 23.6725C109.289 23.725 108.85 23.7965 108.415 23.8869C107.533 24.0616 106.925 24.3597 106.584 24.7847C106.246 25.2137 106.075 25.6745 106.075 26.1789C106.075 26.6994 106.266 27.1204 106.651 27.4382C107.036 27.752 107.577 27.9109 108.28 27.9109C108.808 27.9117 109.331 27.8007 109.813 27.5852C110.306 27.3666 110.731 27.0926 111.08 26.7669V23.5571ZM111.406 30.9418L111.247 29.762C110.806 30.2467 110.25 30.628 109.571 30.902C108.892 31.1763 108.149 31.3151 107.338 31.3151C106.659 31.3151 106.004 31.1999 105.384 30.9696C104.756 30.7434 104.204 30.4135 103.724 29.9884C103.243 29.5634 102.854 29.0429 102.56 28.4193C102.262 27.7957 102.115 27.0926 102.115 26.3061C102.115 25.5235 102.266 24.8282 102.576 24.2285C102.881 23.6287 103.294 23.1241 103.823 22.7071C104.347 22.294 104.951 21.9563 105.63 21.6942C106.306 21.4321 107.021 21.2333 107.763 21.1022C108.288 20.995 108.864 20.9155 109.487 20.8598C110.111 20.8042 110.632 20.7566 111.049 20.7128V20.4825C111.049 19.6085 110.826 18.9889 110.373 18.6155C109.924 18.246 109.305 18.0593 108.518 18.0593C108.057 18.0593 107.616 18.115 107.199 18.2262C106.782 18.3335 106.413 18.4687 106.083 18.6314C105.753 18.7983 105.463 18.9611 105.209 19.1241C104.959 19.2869 104.756 19.4339 104.601 19.5649L103.259 16.7207C103.433 16.5659 103.7 16.383 104.061 16.1646C104.423 15.9461 104.856 15.7316 105.372 15.525C105.885 15.3183 106.46 15.1436 107.104 15.0007C107.748 14.8577 108.443 14.7863 109.182 14.7863C110.055 14.7863 110.854 14.9015 111.573 15.1318C112.292 15.3621 112.916 15.7196 113.44 16.2123C113.96 16.7009 114.369 17.3206 114.667 18.0753C114.961 18.8261 115.108 19.7357 115.108 20.8043V30.9418H111.406ZM127.645 12.7246C127.514 12.6611 127.26 12.5657 126.878 12.4464C126.493 12.3273 125.989 12.2676 125.353 12.2676C124.789 12.2676 124.312 12.4386 123.931 12.7761C123.55 13.1137 123.359 13.6659 123.359 14.4287V15.1794H126.763V18.4526H123.391V30.9537H119.331V18.4526H117.237V15.1794H119.331V14.3293C119.331 13.3044 119.462 12.4385 119.724 11.7274C119.986 11.0204 120.352 10.4403 120.821 9.99538C121.289 9.54658 121.841 9.21691 122.473 9.01034C123.109 8.80357 123.796 8.70044 124.539 8.70044C125.52 8.70044 126.33 8.79185 126.974 8.97865C127.617 9.16545 127.995 9.28845 128.102 9.35601L127.645 12.7246ZM138.708 22.9851C138.708 22.3297 138.629 21.706 138.478 21.1141C138.327 20.5223 138.096 20.0138 137.791 19.5888C137.485 19.1597 137.115 18.8221 136.678 18.5718C136.241 18.3177 135.729 18.1905 135.141 18.1905C134.553 18.1905 134.037 18.3177 133.604 18.5718C133.167 18.8221 132.793 19.1597 132.487 19.5888C132.185 20.0138 131.955 20.5223 131.8 21.1141C131.649 21.7061 131.574 22.3297 131.574 22.9852C131.574 23.6644 131.649 24.2961 131.8 24.876C131.955 25.456 132.178 25.9644 132.472 26.4014C132.765 26.8384 133.139 27.1839 133.584 27.4382C134.033 27.6884 134.553 27.8155 135.141 27.8155C135.729 27.8155 136.241 27.6884 136.678 27.4382C137.115 27.1839 137.485 26.8384 137.79 26.4014C138.096 25.9644 138.327 25.4559 138.478 24.876C138.629 24.2961 138.708 23.6644 138.708 22.9851ZM142.7 23.0025C142.7 24.0312 142.541 25.0402 142.224 26.0333C141.91 27.0264 141.441 27.9123 140.817 28.6988C140.198 29.4853 139.411 30.117 138.462 30.5976C137.512 31.0783 136.404 31.3166 135.141 31.3166C133.874 31.3166 132.765 31.0781 131.82 30.5976C130.871 30.117 130.084 29.4853 129.46 28.6988C128.841 27.9123 128.372 27.0264 128.054 26.0333C127.74 25.0538 127.58 24.0312 127.581 23.0025C127.581 21.9775 127.737 20.9766 128.054 19.9913C128.372 19.0103 128.841 18.1323 129.46 17.3577C130.084 16.5831 130.871 15.9634 131.82 15.4947C132.766 15.026 133.874 14.7876 135.141 14.7876C136.404 14.7876 137.509 15.0261 138.446 15.4947C139.383 15.9634 140.17 16.5831 140.802 17.3577C141.437 18.1323 141.91 19.0103 142.224 19.9913C142.541 20.9766 142.7 21.9775 142.7 23.0025ZM155.297 30.9537V21.9563C155.297 20.7566 155.047 19.8271 154.546 19.1716C154.041 18.5201 153.346 18.1906 152.449 18.1906C151.817 18.1906 151.233 18.3533 150.701 18.6831C150.164 19.0088 149.7 19.3703 149.306 19.7635V30.9537H145.251V15.1794H148.949L149.144 16.4228C149.783 15.898 150.509 15.4893 151.289 15.2152C152.083 14.9292 152.886 14.7901 153.692 14.7901C154.522 14.7901 155.285 14.9132 155.984 15.1635C156.683 15.4178 157.283 15.8151 157.783 16.3592C158.288 16.9035 158.673 17.6145 158.947 18.4845C159.217 19.3583 159.356 20.4071 159.356 21.6266V30.9537H155.297ZM171.981 21.1697C171.937 20.6256 171.822 20.1489 171.635 19.7476C171.448 19.3424 171.218 19.0167 170.944 18.7666C170.67 18.5122 170.376 18.3296 170.058 18.2064C169.736 18.0874 169.415 18.0276 169.085 18.0276C168.382 18.0276 167.714 18.2897 167.079 18.8142C166.443 19.3386 166.07 20.1211 165.959 21.1698L171.981 21.1697ZM165.863 24.0815C165.951 25.4123 166.364 26.3736 167.111 26.9615C167.853 27.5494 168.819 27.8473 169.998 27.8473C170.547 27.8473 171.063 27.7957 171.544 27.7003C172.024 27.6011 172.453 27.4778 172.827 27.3229C173.2 27.1719 173.518 27.0171 173.78 26.8661C174.042 26.7113 174.237 26.5682 174.372 26.4371L175.452 29.7461C175.298 29.8533 175.051 30.0002 174.714 30.187C174.376 30.3738 173.955 30.5445 173.454 30.7113C172.954 30.8742 172.362 31.0133 171.687 31.1364C171.011 31.2554 170.269 31.3151 169.462 31.3151C168.433 31.3151 167.46 31.1523 166.531 30.8265C165.605 30.4968 164.791 29.9883 164.095 29.3012C163.396 28.614 162.84 27.7599 162.427 26.735C162.01 25.71 161.803 24.4866 161.803 23.0685C161.803 21.7378 161.994 20.558 162.376 19.5331C162.757 18.5082 163.281 17.6463 163.945 16.9471C164.612 16.2519 165.387 15.7157 166.268 15.3423C167.154 14.9728 168.096 14.7862 169.101 14.7862C170.106 14.7862 171.031 14.9531 171.885 15.2788C172.735 15.6044 173.47 16.1129 174.094 16.8C174.714 17.4873 175.206 18.3772 175.564 19.4695C175.925 20.558 176.104 21.8569 176.104 23.3624V24.0814L165.863 24.0815Z" fill="#EE3023"/>
</svg>
